<?xml version="1.0" encoding="utf-8" ?>
<svg xmlns="http://www.w3.org/2000/svg" xmlns:xlink="http://www.w3.org/1999/xlink" width="1024" height="1024">
	<path fill="#FBFBFC" d="M0 0L1024 0L1024 1024L0 1024L0 0Z"/>
	<path fill="#534DC6" d="M892.54 834.063C895.581 834.066 898.691 833.311 901.629 834.268C902.764 835.488 902.51 835.986 902.556 837.609C899.594 837.657 896.195 838.218 893.401 837.226C892.383 836.039 892.587 835.587 892.54 834.063Z"/>
	<path fill="#FCC24F" d="M882.873 824.069C888.091 824.103 895.081 822.633 899.938 824.604C900.67 825.925 900.46 826.45 900.34 827.927C896.452 827.814 892.6 828.157 888.724 828.085C886.608 828.046 884.2 828.129 882.684 826.545L882.873 824.069Z"/>
	<path fill="#75D4F7" d="M868.251 457.877L877.977 457.949L877.913 471.054L868.493 471.088C868.547 466.668 868.481 462.292 868.251 457.877Z"/>
	<path fill="#FAAB30" d="M958.029 569.877C960.296 569.86 962.518 569.762 964.776 569.558C967.391 569.971 969.014 570.536 970.625 572.732C971.765 574.285 972.085 576.265 971.734 578.14C971.557 579.084 971.316 579.814 970.904 580.683C967.338 579.803 963.482 580.539 959.875 579.92C958.578 579.697 958.468 579.599 957.737 578.59C957.939 575.703 957.942 572.772 958.029 569.877Z"/>
	<path fill="#42D9EB" d="M857.461 457.932L868.251 457.877C868.481 462.292 868.547 466.668 868.493 471.088L857.502 471.267L857.461 457.932Z"/>
	<path fill="#B682EE" d="M208.86 849.092L208.972 851.891C190.739 852.258 172.448 851.911 154.207 851.983C144.593 852.021 134.056 853.155 124.568 851.879C123.878 850.857 124.096 850.905 124.257 849.755C124.585 849.542 124.858 849.192 125.242 849.116C128.187 848.527 141.746 849.197 145.66 849.196C166.714 849.189 187.813 849.485 208.86 849.092Z"/>
	<path fill="#534DC6" d="M854 491.536C861.774 491.622 896.083 490.67 900.719 491.992C902.053 492.372 902.421 492.89 903.131 494.023C903.112 495.613 902.841 496.158 902.019 497.446C895.238 497.471 858.996 498.563 855.23 497.42C854.228 497.116 853.599 496.509 853.285 495.496C852.881 494.191 853.536 492.738 854 491.536Z"/>
	<path fill="#3723AC" d="M123.934 827.345Q143.894 827.508 163.855 827.466L163.703 835.276L123.991 835.408L123.934 827.345Z"/>
	<path fill="#9E5FF3" d="M478.027 176.525C478.173 173.361 477.797 170.161 478.058 167.002C478.271 164.433 478.859 161.534 481.036 159.881C482.933 158.441 485.231 158.311 487.506 158.536C489.782 159.964 491.152 161.112 491.807 163.804C492.789 167.84 491.985 172.292 492.144 176.42C492.184 179.922 492.999 185.228 490.561 188.028C489.27 189.511 487.47 190.034 485.569 190.021C483.716 190.008 481.435 189.599 480.058 188.243C479.462 187.656 478.959 186.949 478.467 186.275C477.811 183.089 478.017 179.765 478.027 176.525Z"/>
	<path fill="#534DC6" d="M487.506 158.536C489.782 159.964 491.152 161.112 491.807 163.804C492.789 167.84 491.985 172.292 492.144 176.42C492.184 179.922 492.999 185.228 490.561 188.028C489.27 189.511 487.47 190.034 485.569 190.021C483.716 190.008 481.435 189.599 480.058 188.243C479.462 187.656 478.959 186.949 478.467 186.275C482.891 185.383 485.272 184.942 488.514 181.649C488.601 173.807 487.814 166.309 487.506 158.536Z"/>
	<path fill="#9E5FF3" d="M551.006 176.412C551.011 172.312 550.707 167.841 551.857 163.863C552.414 161.935 553.392 160.004 555.256 159.054C557.207 158.061 559.495 158.323 561.484 159.005C563.475 160.238 564.549 161.243 565.162 163.561C566.227 167.584 565.347 172.128 565.476 176.251C565.539 180.596 566.165 184.715 563.918 188.596L563.666 189.037C561.361 190.304 559.007 191.043 556.379 190.307C553.677 189.549 552.325 187.872 551.027 185.508C550.86 182.5 550.989 179.427 551.006 176.412Z"/>
	<path fill="#534DC6" d="M561.484 159.005C563.475 160.238 564.549 161.243 565.162 163.561C566.227 167.584 565.347 172.128 565.476 176.251C565.539 180.596 566.165 184.715 563.918 188.596L563.666 189.037C561.361 190.304 559.007 191.043 556.379 190.307C553.677 189.549 552.325 187.872 551.027 185.508C552.403 184.789 554.023 185.374 555.525 185.364C558.712 185.343 559.776 184.074 561.896 181.881C562.024 174.305 562.184 166.554 561.484 159.005Z"/>
	<path fill="#FCC24F" d="M220.717 534.725C223.821 534.067 226.069 534.052 229.171 534.833C232.673 536.596 234.306 538.227 236.355 541.564C236.535 546.05 237.161 550.67 233.734 554.181C232.455 555.491 230.768 556.521 229.162 557.388C225.72 558.212 223.454 558.338 220.134 557.008C218.683 555.847 217.291 554.646 216.241 553.096C214.217 550.105 212.984 546.092 213.847 542.498C214.729 538.825 217.596 536.503 220.717 534.725Z"/>
	<path fill="#7B7DE8" d="M750.01 833.963C759.597 834.064 886.479 834.001 887.399 834.447C887.994 834.736 888.105 836.178 888.259 836.814C887.342 837.493 886.558 837.563 885.454 837.618C877.334 838.024 868.993 837.642 860.853 837.645L811.542 837.665L773.249 837.671C765.91 837.668 758.391 838.035 751.09 837.388C750.161 836.433 750.233 835.253 750.01 833.963Z"/>
	<path fill="#534DC6" d="M927.489 509.259Q930.955 509.131 934.423 509.087C937.099 509.076 940.291 509.557 942.266 511.505L942.267 512.333C940.866 513.704 938.832 514.184 936.931 514.421C929.365 515.367 920.658 514.523 912.99 514.525L867.25 514.936C863.472 514.961 857.456 515.678 853.915 514.599C853.641 514.207 853.073 513.509 852.93 513.02C852.545 511.7 852.728 511.39 853.376 510.302C854.607 509.618 855.606 509.308 857.022 509.224C864.3 508.79 872.086 509.348 879.418 509.365Q903.454 509.467 927.489 509.259Z"/>
	<path fill="#534DC6" d="M853.508 526.172C872.654 526.034 891.804 526.348 910.95 526.396C916.194 526.409 936.735 525.447 940.541 526.747C941.519 527.081 941.607 527.441 942.056 528.292C941.905 529.886 941.475 530.347 940.476 531.512Q919.956 531.427 899.437 531.732C884.151 532.039 868.512 532.709 853.257 531.826L852.588 530.771C852.549 529.004 852.894 527.821 853.508 526.172Z"/>
	<path fill="#534DC6" d="M853.701 543.017C872.523 542.465 891.53 543.009 910.371 543.045C917.589 543.059 933.622 542.183 939.956 543.57C941.202 543.843 941.546 544.235 942.182 545.285C942.06 546.934 941.696 547.442 940.724 548.696L878.624 548.887C873.072 548.89 858.747 549.842 854.264 548.46C853.031 548.079 852.926 547.806 852.391 546.747C852.492 545.157 852.903 544.334 853.701 543.017Z"/>
	<path fill="#1E1280" d="M757.922 897.378Q792.739 897.612 827.557 897.414L827.57 905.507L757.643 905.611L757.922 897.378Z"/>
	<path fill="#F67F14" d="M563.502 248.507L592.171 248.617C592.276 253.848 593.553 263.043 589.628 267.071C587.659 269.091 584.753 269.25 582.097 269.204C575.763 269.093 569.469 268.892 563.128 268.957C563.458 262.159 563.413 255.314 563.502 248.507Z"/>
	<path fill="#534DC6" d="M840.997 897.006Q863.486 897.186 885.975 897.074C893.669 897.041 901.79 896.477 909.449 897.058L909.432 905.496Q875.193 906.074 840.95 905.969L840.997 897.006Z"/>
	<path fill="#902800" d="M757.501 807.506C780.654 807.548 803.913 807.099 827.053 807.65L827.019 816.505L757.48 816.5L757.501 807.506Z"/>
	<path fill="#F67F14" d="M841.006 807.48Q874.801 807.483 908.594 807.064L908.578 817.151C886.035 817.004 863.297 816.307 840.773 816.973C841.184 813.835 841.031 810.639 841.006 807.48Z"/>
	<path fill="#9E5FF3" d="M138.773 643.361L139.098 642.536C140.097 642.031 139.738 642.062 140.738 642.05C142.661 642.028 144.474 642.03 146.392 641.827C147.226 672.056 145.874 702.375 146.485 732.621L139.356 732.505L139.185 677.405C139.147 666.085 139.402 654.663 138.773 643.361Z"/>
	<path fill="#FD83A5" d="M696.19 252.435C703.995 240.929 715.13 229.245 727.902 223.307C730.983 226.179 733.465 229.626 736.038 232.946L736.497 233.425C734.266 236.466 728.7 238.969 725.573 241.329C723.12 243.179 720.845 245.342 718.718 247.553C714.743 251.682 711.409 256.245 708.223 260.992C706.959 262.876 705.534 265.987 703.982 267.493C703.788 267.681 703.539 267.802 703.318 267.957L692.303 259.236C693.417 256.868 694.829 254.667 696.19 252.435Z"/>
	<path fill="#FD83A5" d="M700.14 275.325C701.033 276.532 700.866 277.216 700.688 278.684C699.847 285.598 698.245 292.502 698.505 299.526C698.65 303.434 702.555 317.92 701.554 320.365L700.142 320.721C695.631 321.717 691.062 321.609 686.47 321.606C682.465 307.434 681.868 290.368 685.424 276.062C690.242 275.4 695.274 275.521 700.14 275.325Z"/>
	<path fill="#B5B8E3" d="M922.429 439.386C926.86 442.108 956.195 471.481 957.429 475.514C957.623 476.146 957.644 476.933 957.695 477.58C946.015 478.085 934.181 477.744 922.482 477.869L922.429 439.386Z"/>
	<path fill="#FD83A5" d="M745.495 213.501C761.039 209.681 777.718 208.886 793.057 214.108C792.971 219.126 792.932 224.148 792.654 229.16C792.342 229.322 792.067 229.599 791.718 229.647C788.176 230.136 782.113 227.346 778.306 226.914C766.868 225.616 756.803 227.809 745.644 229.886C745.681 226.232 745.729 222.611 745.425 218.966C745.436 217.145 745.419 215.32 745.495 213.501Z"/>
	<path fill="#FD83A5" d="M809.63 223.615C825.011 230.596 838.509 241.836 844.799 257.959C842.406 260.995 839.696 263.641 836.939 266.342L835.967 266.995L833.125 268.958C828.213 272.033 822.713 274.054 817.354 276.207C814.714 271.013 811.574 266.324 808.033 261.704C815.352 260.671 822.73 260.576 830.107 260.515C825.012 254.177 819.774 247.903 813.68 242.488C810.153 239.356 803.858 236.863 801.265 233.254L801.595 232.338C804.646 229.758 806.827 226.428 809.63 223.615Z"/>
	<path fill="#FDACBE" d="M153.019 454.915C170.281 456.103 187.506 466.34 200.159 477.568C214.897 493.139 228.473 512.549 229.171 534.833C226.069 534.052 223.821 534.067 220.717 534.725C218.179 524.372 215.766 514.57 210.536 505.141C197.688 481.978 178.608 470.878 153.882 463.789C154.198 460.65 153.731 457.94 153.019 454.915Z"/>
	<path fill="#FDACBE" d="M220.134 557.008C223.454 558.338 225.72 558.212 229.162 557.388C227.734 564.064 226.609 570.759 224.476 577.265C218.522 595.426 205.695 611.622 189.715 622.044C179.117 628.956 164.644 634.362 151.963 635.135C152.791 632.309 152.737 629.704 152.352 626.806C164.355 623.978 175.968 620.247 186.164 613.125C206.804 598.707 215.738 581.139 220.134 557.008Z"/>
	<path fill="#76AFF9" d="M707.832 530.499L727.356 530.345C738.888 530.239 750.456 530.926 759.349 522.141C775.352 506.333 760.358 473.641 798.57 473.143C811.23 472.977 823.895 473.194 836.555 473.054L836.542 480.507L808.594 480.421C802.744 480.411 796.102 479.786 790.395 481.068C787.812 481.649 785.633 482.864 783.758 484.734C777.715 490.757 776.94 500.615 774.924 508.494C770.027 527.63 758.581 537.237 738.787 537.739C728.504 537.999 718.165 537.622 707.874 537.626L707.832 530.499Z"/>
	<path fill="#FCC24F" d="M123.636 793.011L164.057 793.033C164.056 803.636 164.919 817.22 163.855 827.466Q143.894 827.508 123.934 827.345C123.491 815.902 123.835 804.456 123.636 793.011Z"/>
	<path fill="#FDACBE" d="M474.938 268.61C486.678 268.294 498.466 268.521 510.214 268.549C517.966 268.567 526.051 268.109 533.749 268.899C531.059 268.932 528.364 269.001 525.674 268.961L525.531 366.252C525.546 386.325 525.176 406.526 525.899 426.581L516.603 426.621Q517.214 347.787 516.522 268.953C502.704 268.985 488.735 269.311 474.938 268.61Z"/>
	<path fill="#F67F14" d="M971.146 624.986C974.109 627.197 976.376 629.251 976.894 633.078C977.306 636.117 976.527 638.723 974.554 641.082C972.48 643.561 970.061 644.219 966.926 644.384C960.513 644.72 953.914 644.231 947.483 644.13Q931.737 643.944 915.989 643.979C910.968 643.984 905.611 643.628 900.644 644.172C898.316 644.296 895.926 644.144 893.592 644.106C884.491 643.629 829.475 645.251 824.552 643.074C821.963 641.929 820.762 639.002 819.825 636.537C819.916 635.346 819.7 634.426 820.571 633.559C821.086 633.632 821.635 633.703 822.137 633.82C823.558 634.152 824.684 634.552 826.186 634.582C859.236 635.227 892.428 634.502 925.495 634.547L954.76 634.603C958.879 634.61 964.114 635.195 968.116 634.358C968.798 634.215 969.191 634.096 969.667 633.551C971.475 631.478 971.09 627.599 971.146 624.986Z"/>
	<path fill="#9E5FF3" d="M833.125 268.958L835.967 266.995C837.729 270.972 839.283 275.004 840.204 279.267L851.829 279.577C853.705 293.031 854.635 307.417 850.731 320.631C846.733 321.029 842.788 321.112 838.772 321.133C837.55 325.093 836.307 329.007 834.276 332.643C837.264 335.453 840.142 338.274 842.87 341.338C834.007 356.155 819.668 368.957 803.483 375.241C800.197 372.331 796.977 369.239 793.556 366.494L792.722 366.196C796.683 363.099 801.237 360.628 805.355 357.72C818.941 348.127 830.067 335.962 834.943 319.806C839.547 304.553 840.906 283.45 833.125 268.958Z"/>
	<path fill="#FAAB30" d="M825.029 622.867C837.147 624.134 850.298 623.175 862.513 623.155L931.903 623.063C944.33 623.072 957.044 622.607 969.434 623.355L971.146 624.986C971.09 627.599 971.475 631.478 969.667 633.551C969.191 634.096 968.798 634.215 968.116 634.358C964.114 635.195 958.879 634.61 954.76 634.603L925.495 634.547C892.428 634.502 859.236 635.227 826.186 634.582C824.684 634.552 823.558 634.152 822.137 633.82C821.635 633.703 821.086 633.632 820.571 633.559C819.7 634.426 819.916 635.346 819.825 636.537C819.491 634.094 819.206 631.087 819.845 628.688C820.651 625.66 822.422 624.382 825.029 622.867Z"/>
	<path fill="#42D9EB" d="M234.768 732.609C235.703 699.267 234.974 665.749 235.066 632.385C235.094 622.363 234.028 602.658 235.588 593.887C236.351 589.602 238.606 585.868 241.664 582.811C244.524 579.951 248.678 577.331 252.635 576.275C259.921 574.33 272.579 575.476 280.314 575.491L322.217 575.455L322.362 582.597L279.477 582.516C272.017 582.509 263.553 581.716 256.209 583.118C252.987 583.732 250.304 585.101 248.011 587.465C244.874 590.699 243.448 594.584 242.869 598.978C242.094 604.859 242.519 611.201 242.55 617.137L242.805 650.221C243.028 677.695 242.449 705.174 242.86 732.642C240.18 732.47 237.455 732.588 234.768 732.609Z"/>
	<path fill="#76AFF9" d="M124.01 865.485L164.454 865.526L164.393 901.145L164.41 909.031L124.313 909.102C123.608 903.971 124.062 898.272 124.075 893.064Q124.122 879.274 124.01 865.485Z"/>
	<path fill="#534DC6" d="M124.447 901.058L164.393 901.145L164.41 909.031L124.313 909.102C124.612 906.482 124.437 903.699 124.447 901.058Z"/>
	<path fill="#9E5FF3" d="M705.837 329.833C709.638 335.608 713.611 341.171 718.374 346.21C726.183 354.471 742.072 366.611 753.373 368.909C765.469 371.368 781.147 370.632 792.722 366.196L793.556 366.494C793.428 366.594 793.289 366.68 793.172 366.792C790.812 369.042 791.925 384.237 791.831 388.109C776.896 391.487 760.732 391.026 745.779 388.087C745.321 382.141 745.62 375.946 745.601 369.97L740.661 367.381C738.406 370.226 736.089 372.691 733.417 375.15C733.108 375.028 732.798 374.911 732.491 374.785C717.063 368.482 701.471 353.284 695.268 337.795C698.112 335.003 701.454 332.579 704.585 330.118L705.837 329.833Z"/>
	<path fill="#9E5FF3" d="M209.141 865.645L216.512 865.499C215.215 877.312 216.236 889.502 215.948 901.386L215.788 909.097L207.971 908.982C196.489 908.834 184.986 908.989 173.502 909.018L173.495 901.292C173.313 889.425 173.456 877.534 173.445 865.665Q191.293 865.79 209.141 865.645Z"/>
	<path fill="#3723AC" d="M173.495 901.292C187.631 901.369 201.824 901.007 215.948 901.386L215.788 909.097L207.971 908.982C196.489 908.834 184.986 908.989 173.502 909.018L173.495 901.292Z"/>
	<path fill="#FDACBE" d="M260.491 391.982L269.972 391.971Q269.42 423.835 269.549 455.702C269.539 468.001 269.089 480.485 269.592 492.766C269.375 503.761 267.146 517.628 275.557 526.243C283.095 533.965 294.289 532.564 304.099 532.446L322.231 532.166C322.196 526.201 321.874 520.083 322.19 514.135Q322.448 523.107 322.327 532.082C328.004 532.049 333.991 532.374 339.631 531.851C340.29 532.818 340.34 532.882 340.084 534.088C339.533 536.688 338.252 539.497 335.853 540.86C332.286 542.887 326.392 541.756 322.387 541.537C314.037 540.167 303.17 541.426 294.543 541.428C284.644 541.431 275.857 540.04 268.68 532.6C257.135 520.629 260.313 502.356 260.501 487.198Q261.023 439.59 260.491 391.982Z"/>
	<path fill="#FAAB30" d="M565.476 176.251C570.339 176.394 584.238 175.266 587.943 176.79C588.824 177.153 589.497 177.706 590.147 178.389C591.254 179.554 591.762 180.561 591.962 182.174C592.837 189.25 592.188 197.126 592.186 204.279L592.171 248.617L563.502 248.507L563.445 208.049C563.424 201.937 562.597 195.004 563.666 189.037L563.918 188.596C566.165 184.715 565.539 180.596 565.476 176.251Z"/>
	<path fill="#FAAB30" d="M447.499 248.07C463.678 248.384 479.844 248.095 496.022 248.237C518.484 248.434 541.045 248.948 563.502 248.507C563.413 255.314 563.458 262.159 563.128 268.957L533.749 268.899C526.051 268.109 517.966 268.567 510.214 268.549C498.466 268.521 486.678 268.294 474.938 268.61C469.524 268.559 453.694 270.247 450.091 266.574C446.186 262.593 447.44 253.248 447.499 248.07Z"/>
	<path fill="#7B7DE8" d="M840.851 856.162L884.747 856.097C892.925 856.089 901.224 855.838 909.388 856.222L909.449 897.058C901.79 896.477 893.669 897.041 885.975 897.074Q863.486 897.186 840.997 897.006L840.851 856.162Z"/>
	<path fill="#FBFBFC" d="M867.555 873.03C868.461 873.095 869.395 873.152 870.285 873.344C872.117 873.738 873.837 875.057 874.746 876.683C875.752 878.479 875.758 880.551 875.098 882.47C874.089 885.406 872.056 886.654 869.399 887.975C868.261 887.904 867.027 887.841 865.967 887.39C864.201 886.638 862.7 885.074 862 883.293C861.263 881.421 861.375 879.266 862.197 877.437C863.319 874.94 865.115 874.007 867.555 873.03Z"/>
	<path fill="#FCC24F" d="M840.141 765.641C862.802 766.744 885.83 765.948 908.529 765.981L908.594 807.064Q874.801 807.483 841.006 807.48C841.031 810.639 841.184 813.835 840.773 816.973C840.139 811.678 840.485 805.956 840.465 800.614C840.421 788.965 840.572 777.281 840.141 765.641Z"/>
	<path fill="#FBFBFC" d="M866.096 778.984C867.051 778.952 868.044 778.902 868.994 779.017C870.827 779.238 872.878 780.58 873.951 782.055C875.139 783.689 875.464 785.755 875.038 787.711C874.394 790.665 872.427 792.225 869.967 793.72C868.993 793.707 867.963 793.692 867.009 793.488C865.008 793.06 862.924 791.681 861.833 789.942C860.802 788.3 860.621 786.435 861.063 784.565C861.709 781.828 863.814 780.342 866.096 778.984Z"/>
	<path fill="#F4656C" d="M757.468 766.448L827.175 766.375C827.156 780.128 827.28 793.899 827.053 807.65C803.913 807.099 780.654 807.548 757.501 807.506L757.468 766.448Z"/>
	<path fill="#FBFBFC" d="M782.969 778.54C784.358 778.434 785.77 778.326 787.157 778.521C789.322 778.827 791.349 780.31 792.522 782.126C793.54 783.704 793.887 785.653 793.356 787.465C792.532 790.279 790.648 791.768 788.191 793.15C786.978 793.371 785.843 793.542 784.61 793.367C782.7 793.096 780.823 792.016 779.665 790.469C778.313 788.661 777.98 786.46 778.408 784.271C778.959 781.457 780.695 780.059 782.969 778.54Z"/>
	<path fill="#7B7DE8" d="M757.985 856.066L827.617 855.978L827.557 897.414Q792.739 897.612 757.922 897.378L757.985 856.066Z"/>
	<path fill="#F64A55" d="M778.474 881.93Q789.261 882.156 800.05 882.023C799.041 883.534 797.951 884.96 796.521 886.104Q796.07 886.465 795.583 886.778Q795.097 887.09 794.582 887.351Q794.066 887.612 793.526 887.819Q792.987 888.026 792.429 888.176Q791.87 888.326 791.3 888.418Q790.729 888.51 790.152 888.543Q789.575 888.576 788.998 888.549Q788.42 888.523 787.849 888.437C783.655 887.788 780.856 885.252 778.474 881.93Z"/>
	<path fill="#F67F14" d="M778.474 881.93C778.311 879.627 778.516 877.761 780.1 875.963C782.092 873.704 785.092 872.737 788.03 872.615C791.399 872.474 795.029 873.544 797.504 875.901C799.26 877.573 800.011 879.62 800.05 882.023Q789.261 882.156 778.474 881.93Z"/>
	<path fill="#FDACBE" d="M366.396 897.511C365.691 890.343 366.052 882.804 366.037 875.584C366.015 865.21 365.775 854.694 366.395 844.342Q366.62 854.681 366.447 865.021L532.493 865.386C561.483 865.41 593.111 866.503 621.766 864.906C620.881 868.119 620.369 874.647 621.66 877.789C613.797 876.273 604.6 876.914 596.601 876.807Q570.071 876.446 543.538 876.561L366.414 876.582C366.461 883.523 366.773 890.586 366.396 897.511Z"/>
	<path fill="#FAAB30" d="M826.599 601.306C860.241 601.906 893.968 601.452 927.62 601.502C941.194 601.522 955.478 600.726 968.963 601.615L971.715 603.925C974.57 606.478 976.584 608.628 976.805 612.633C976.972 615.656 975.738 618.477 973.613 620.609C972.462 621.764 970.929 622.718 969.434 623.355C957.044 622.607 944.33 623.072 931.903 623.063L862.513 623.155C850.298 623.175 837.147 624.134 825.029 622.867C822.401 620.934 821.179 619.177 819.676 616.267C819.579 614.12 819.324 611.739 819.675 609.614C820.354 605.5 823.424 603.492 826.599 601.306Z"/>
	<path fill="#F67F14" d="M971.715 603.925C974.57 606.478 976.584 608.628 976.805 612.633C976.972 615.656 975.738 618.477 973.613 620.609C972.462 621.764 970.929 622.718 969.434 623.355C957.044 622.607 944.33 623.072 931.903 623.063L862.513 623.155C850.298 623.175 837.147 624.134 825.029 622.867C822.401 620.934 821.179 619.177 819.676 616.267C819.707 616.048 819.735 615.829 819.769 615.611C820.385 611.725 823.596 613.594 826.74 613.619L914.557 613.668C924.174 613.716 933.799 613.67 943.415 613.828C949.855 613.933 956.534 614.429 962.95 614.035C964.85 613.918 967.359 613.714 968.88 612.403C971.368 610.261 971.352 606.946 971.715 603.925Z"/>
	<path fill="#FDACBE" d="M745.425 218.966C745.729 222.611 745.681 226.232 745.644 229.886C756.803 227.809 766.868 225.616 778.306 226.914C782.113 227.346 788.176 230.136 791.718 229.647C792.067 229.599 792.342 229.322 792.654 229.16C795.261 229.146 799.655 230.598 801.595 232.338L801.265 233.254C803.858 236.863 810.153 239.356 813.68 242.488C819.774 247.903 825.012 254.177 830.107 260.515C822.73 260.576 815.352 260.671 808.033 261.704C797.588 251.46 784.479 244.922 769.611 245.084Q768.253 245.099 766.897 245.181Q765.542 245.263 764.191 245.411Q762.841 245.559 761.5 245.773Q760.159 245.988 758.83 246.267Q757.501 246.547 756.187 246.891Q754.873 247.235 753.578 247.644Q752.283 248.052 751.009 248.523Q749.735 248.995 748.486 249.528Q747.237 250.061 746.015 250.654Q744.794 251.248 743.603 251.901Q742.412 252.554 741.254 253.264Q740.097 253.975 738.975 254.741Q737.854 255.507 736.771 256.327Q735.689 257.148 734.648 258.02Q733.607 258.892 732.61 259.815Q731.613 260.737 730.662 261.707Q729.786 262.601 728.957 263.538Q728.127 264.474 727.345 265.451Q726.564 266.429 725.832 267.444Q725.101 268.459 724.421 269.51Q723.741 270.56 723.115 271.644Q722.49 272.727 721.919 273.841Q721.348 274.954 720.834 276.095Q720.32 277.236 719.864 278.401Q719.407 279.566 719.01 280.753Q718.613 281.939 718.276 283.144Q717.939 284.35 717.663 285.57Q717.387 286.79 717.173 288.023Q716.958 289.256 716.806 290.498Q716.654 291.74 716.564 292.988Q716.475 294.236 716.448 295.487Q716.421 296.738 716.457 297.989C716.638 305.843 718.682 312.762 721.449 320.056C718.211 322.678 707.175 327.575 705.837 329.833L704.585 330.118C702.531 327.168 702.108 323.537 700.142 320.721L701.554 320.365C702.555 317.92 698.65 303.434 698.505 299.526C698.245 292.502 699.847 285.598 700.688 278.684C700.866 277.216 701.033 276.532 700.14 275.325C700.108 275.069 700.032 274.815 700.043 274.558C700.144 272.348 701.854 269.535 703.318 267.957C703.539 267.802 703.788 267.681 703.982 267.493C705.534 265.987 706.959 262.876 708.223 260.992C711.409 256.245 714.743 251.682 718.718 247.553C720.845 245.342 723.12 243.179 725.573 241.329C728.7 238.969 734.266 236.466 736.497 233.425L736.038 232.946C738.844 230.788 741.911 229.708 745.224 228.61C745.182 225.376 745.209 222.193 745.425 218.966Z"/>
	<path fill="#B682EE" d="M817.354 276.207C822.713 274.054 828.213 272.033 833.125 268.958C840.906 283.45 839.547 304.553 834.943 319.806C830.067 335.962 818.941 348.127 805.355 357.72C801.237 360.628 796.683 363.099 792.722 366.196C781.147 370.632 765.469 371.368 753.373 368.909C742.072 366.611 726.183 354.471 718.374 346.21C713.611 341.171 709.638 335.608 705.837 329.833C707.175 327.575 718.211 322.678 721.449 320.056C726.694 331.308 736.602 340.68 747.985 345.507C760.986 351.02 775.21 351.812 788.397 346.478C801.629 341.125 812.134 330.153 817.592 317.032Q818.09 315.82 818.527 314.586Q818.965 313.351 819.34 312.096Q819.716 310.841 820.029 309.569Q820.343 308.297 820.593 307.011Q820.843 305.725 821.029 304.428Q821.215 303.132 821.337 301.827Q821.459 300.523 821.516 299.214Q821.573 297.906 821.565 296.596Q821.558 295.286 821.485 293.978Q821.413 292.67 821.276 291.367Q821.139 290.064 820.938 288.77Q820.736 287.475 820.471 286.192Q820.206 284.909 819.878 283.641Q819.55 282.373 819.16 281.122Q818.769 279.872 818.318 278.642Q817.866 277.413 817.354 276.207Z"/>
	<path fill="#FCC24F" d="M819.73 591.399C819.232 589.604 819.089 586.201 819.57 584.347C820.068 582.426 821.454 581.477 823.045 580.526C823.528 580.237 824.025 579.971 824.493 579.658C828.01 577.304 826.163 571.963 827.121 568.326C827.531 566.77 828.318 565.164 829.825 564.438C831.556 563.603 833.058 563.228 834.869 563.908C837.275 566.854 836.027 574.682 836.007 578.444Q879.01 578.094 922.013 578.261C933.91 578.342 945.849 578.119 957.737 578.59C958.468 579.599 958.578 579.697 959.875 579.92C963.482 580.539 967.338 579.803 970.904 580.683L970.745 581.885L971.147 582.404C973.227 583.9 974.797 585.437 976.401 587.429C976.663 591.244 977.168 595.418 974.373 598.501C972.945 600.076 970.919 600.912 968.963 601.615C955.478 600.726 941.194 601.522 927.62 601.502C893.968 601.452 860.241 601.906 826.599 601.306C825.285 600.77 823.98 599.994 822.893 599.076C820.519 597.072 820.08 594.319 819.73 591.399Z"/>
	<path fill="#F67F14" d="M971.147 582.404C973.227 583.9 974.797 585.437 976.401 587.429C976.663 591.244 977.168 595.418 974.373 598.501C972.945 600.076 970.919 600.912 968.963 601.615C955.478 600.726 941.194 601.522 927.62 601.502C893.968 601.452 860.241 601.906 826.599 601.306C825.285 600.77 823.98 599.994 822.893 599.076C820.519 597.072 820.08 594.319 819.73 591.399L820.457 591.103C821.172 591.275 821.878 591.414 822.605 591.528C831.297 592.898 844.892 591.935 854.024 591.963L920.504 592.191C926.062 592.211 967.271 593.238 969.072 591.605C971.368 589.524 971.028 585.251 971.147 582.404Z"/>
	<path fill="#E4DEEF" d="M162.755 249.889C165.625 240.536 173.544 232.512 180.531 226.067C196.38 211.447 217.206 202.529 238.977 203.527C263.931 204.672 282.925 215.753 299.393 233.926C302.369 237.475 304.761 238.81 305.332 243.62L212.465 243.629C201.672 243.697 184.236 242.778 174.089 244.306C169.916 244.934 165.968 247.236 162.755 249.889Z"/>
	<path fill="#E4DEEF" d="M276.256 851.693L276.295 852.22C277.225 866.021 276.125 880.448 276.008 894.312C275.961 899.858 275.355 906.156 276.601 911.583C277.524 915.602 279.751 919.597 282.779 922.412C284.069 923.612 285.531 924.673 287.002 925.64C277.32 926.595 267.258 926.058 257.522 926.028L208.184 925.948C208.488 920.284 208.2 914.642 207.971 908.982L215.788 909.097L215.948 901.386C216.236 889.502 215.215 877.312 216.512 865.499L209.141 865.645Q209.229 858.766 208.972 851.891C231.39 851.669 253.846 852.214 276.256 851.693Z"/>
	<path fill="#1E1280" d="M226.108 900.545C240.049 900.275 254.027 900.527 267.972 900.587C268.085 903.295 268.038 906.033 268.059 908.744C254.112 909.174 240.069 908.885 226.112 908.893L226.108 900.545Z"/>
	<path fill="#21BDB7" d="M226.048 865.664C239.969 865.845 253.884 865.658 267.804 865.757C267.753 877.282 267.184 889.093 267.972 900.587C254.027 900.527 240.049 900.275 226.108 900.545C226.097 888.922 226.206 877.285 226.048 865.664Z"/>
	<path fill="#B5B8E3" d="M287.002 925.64C289.831 926.533 292.462 926.62 295.399 926.606C306.833 927.217 318.416 927.018 329.866 927.07C337.729 927.105 346.146 927.677 353.94 926.643C360.544 927.594 377.768 925.479 382.208 928.506C384.572 930.118 386.242 932.874 386.651 935.696C387.028 938.287 386.426 940.976 384.751 943.023C382.835 945.364 380.282 946.135 377.385 946.456C367.278 947.577 352.541 946.632 342.085 946.632L268.262 946.778L144.646 947.004L104.902 947.021C99.156 947.028 93.2306 947.494 87.5111 947.164C84.4699 946.989 81.4341 946.171 79.0806 944.154Q78.7075 943.839 78.3686 943.486Q78.0297 943.134 77.7287 942.749Q77.4277 942.364 77.1676 941.951Q76.9076 941.537 76.6913 941.099Q76.475 940.661 76.3047 940.203Q76.1344 939.744 76.0119 939.271Q75.8894 938.798 75.816 938.315Q75.7426 937.832 75.719 937.344Q75.6979 936.816 75.7325 936.289Q75.7671 935.761 75.8571 935.24Q75.9471 934.72 76.0914 934.211Q76.2357 933.703 76.4329 933.212Q76.63 932.722 76.8776 932.255Q77.1253 931.788 77.4208 931.35Q77.7163 930.912 78.0563 930.507Q78.3963 930.103 78.777 929.736C83.6979 924.93 91.9021 926.486 98.212 926.426C111.365 926.939 124.796 926.184 137.979 926.088L208.184 925.948L257.522 926.028C267.258 926.058 277.32 926.595 287.002 925.64Z"/>
	<path fill="#B5B8E3" d="M739.366 925.495C757.229 925.052 775.103 923.838 792.965 923.656C810.356 923.477 827.625 924.144 845.001 924.534L887.704 925.381C901.624 925.784 915.717 924.635 929.584 925.984C933.868 926.094 938.114 926.252 942.385 926.619C944.195 927.73 945.899 928.85 947.21 930.555C949.042 932.938 950.072 936.252 949.66 939.251C949.35 941.498 948.102 943.466 946.29 944.81C943.256 947.059 939.664 946.924 936.037 947.006C910.991 947.578 885.813 947.008 860.75 946.996L709.6 947.056L640.665 947.103C631.813 947.144 615.169 948.3 607.136 946.783C604.568 946.298 602.307 944.865 600.925 942.628C599.275 939.958 598.972 936.639 599.704 933.624C600.576 930.027 602.421 928.452 605.484 926.607C619.4 925.413 637.441 926.389 651.717 926.411C651.932 926.651 652.14 926.898 652.361 927.133C655.719 930.713 666.988 929.963 671.904 930.224L673.709 925.581C695.566 925.61 717.521 926.071 739.366 925.495Z"/>
	<path fill="#FAAB30" d="M359.963 839.633C361.814 839.568 364.382 839.102 365.95 840.204C366.56 841.646 366.464 842.822 366.395 844.342C365.775 854.694 366.015 865.21 366.037 875.584C366.052 882.804 365.691 890.343 366.396 897.511C366.523 905.744 367.771 914.98 361.601 921.488C359.463 923.743 356.707 925.288 353.94 926.643C346.146 927.677 337.729 927.105 329.866 927.07C318.416 927.018 306.833 927.217 295.399 926.606C292.462 926.62 289.831 926.533 287.002 925.64C285.531 924.673 284.069 923.612 282.779 922.412C279.751 919.597 277.524 915.602 276.601 911.583C275.355 906.156 275.961 899.858 276.008 894.312C276.125 880.448 277.225 866.021 276.295 852.22L276.256 851.693L276.438 848.966L276.398 839.732C278.824 839.756 281.264 839.647 283.69 839.598L295.512 839.572L318.016 839.583L322.127 839.677C331.158 839.502 340.187 839.923 349.22 839.711L359.963 839.633Z"/>
	<path fill="#FBFBFC" d="M301 868.945C302.311 868.888 303.915 868.736 305.12 869.373C305.813 869.739 306.459 870.309 306.714 871.057C307.314 872.813 306.456 874.355 305.663 875.878C304.625 875.94 303.23 876.047 302.247 875.692C301.528 875.432 300.782 874.866 300.457 874.168C299.631 872.392 300.347 870.641 301 868.945Z"/>
	<path fill="#F3CA8F" d="M301.769 883.413C302.971 883.433 304.46 883.404 305.491 884.128C306.437 884.792 306.992 885.76 306.981 886.921C306.964 888.588 305.993 889.841 305.032 891.101C303.752 891.107 302.414 891.166 301.342 890.31C300.303 889.481 299.898 888.594 299.8 887.298C299.68 885.713 300.767 884.479 301.769 883.413Z"/>
	<path fill="#F3CA8F" d="M286.124 868.269C286.958 868.356 287.915 868.408 288.71 868.677C290.058 869.133 290.529 869.986 291.182 871.153C291.372 873.137 290.834 874.315 290.041 876.113C288.375 876.173 287.174 876.297 285.665 875.442C285.122 874.724 284.505 874.212 284.408 873.286C284.202 871.32 285.011 869.805 286.124 868.269Z"/>
	<path fill="#FBFBFC" d="M317.972 868.417C319.362 868.57 321.188 868.794 322.228 869.855C323.02 870.664 323.412 871.465 323.253 872.622C323.053 874.069 321.726 875.141 320.717 876.07C319.253 876.007 317.578 876.059 316.416 875.011C315.526 874.208 315.132 873.325 315.276 872.115C315.47 870.482 316.823 869.424 317.972 868.417Z"/>
	<path fill="#F3CA8F" d="M285.982 882.899C287.542 882.996 289.221 883.008 290.436 884.147C291.335 884.99 291.684 885.964 291.549 887.189C291.383 888.695 290.17 889.755 289.146 890.737C287.775 890.696 286.232 890.72 285.106 889.802C284.156 889.027 283.638 888.074 283.698 886.827C283.779 885.165 284.899 884.02 285.982 882.899Z"/>
	<path fill="#FBFBFC" d="M315.415 879.98C316.446 879.926 317.495 879.859 318.526 879.915C320.392 880.017 322.294 881.125 323.485 882.535C324.707 883.982 325.26 885.794 324.951 887.675C324.479 890.552 322.645 892.28 320.347 893.849C319.85 893.899 319.352 893.957 318.853 893.976C316.721 894.054 314.626 893.36 313.097 891.84C311.655 890.406 311.102 888.527 311.232 886.521C311.436 883.377 313.133 881.911 315.415 879.98Z"/>
	<path fill="#FCC24F" d="M359.963 839.633C361.814 839.568 364.382 839.102 365.95 840.204C366.56 841.646 366.464 842.822 366.395 844.342C365.775 854.694 366.015 865.21 366.037 875.584C366.052 882.804 365.691 890.343 366.396 897.511C366.523 905.744 367.771 914.98 361.601 921.488C359.463 923.743 356.707 925.288 353.94 926.643C346.146 927.677 337.729 927.105 329.866 927.07C318.416 927.018 306.833 927.217 295.399 926.606C306.215 925.819 317.699 926.376 328.546 926.778C328.159 916.592 328.122 906.191 328.49 896.006C328.644 891.746 329.29 887.483 329.241 883.223C329.076 868.861 327.63 854.547 328.003 840.152C326.26 840.181 323.653 840.577 322.127 839.677C331.158 839.502 340.187 839.923 349.22 839.711L359.963 839.633Z"/>
	<path fill="#FBFBFC" d="M332.825 868.882C334.289 868.789 335.868 868.558 337.146 869.443C337.783 869.884 338.438 870.734 338.568 871.485C338.866 873.197 338.142 874.654 337.221 876.051C335.638 876.08 334.003 876.187 332.618 875.271C331.376 874.449 331.287 873.919 330.929 872.574C331.192 870.9 331.789 870.139 332.825 868.882Z"/>
	<path fill="#FBFBFC" d="M349.627 868.373C350.894 868.594 352.31 868.808 353.257 869.786C354.096 870.652 354.414 871.798 354.218 872.978C353.941 874.636 352.818 875.532 351.562 876.484C350.206 876.276 348.71 876.106 347.712 875.045C346.89 874.171 346.504 873.271 346.72 872.072C347.019 870.411 348.416 869.39 349.627 868.373Z"/>
	<path fill="#FBFBFC" d="M348.872 883.409C350.377 883.386 351.912 883.384 353.234 884.231C354.422 884.991 354.445 885.661 354.729 886.927C354.371 888.742 353.468 889.593 352.224 890.912C350.735 891.053 348.856 891.116 347.646 890.044C346.737 889.24 346.391 888.236 346.48 887.044C346.597 885.468 347.817 884.43 348.872 883.409Z"/>
	<path fill="#FBFBFC" d="M334.144 882.945C335.551 883.26 337.105 883.566 338.022 884.809C338.721 885.755 338.843 886.59 338.66 887.71C338.354 889.579 336.931 890.513 335.472 891.477C333.878 891.09 332.323 890.652 331.277 889.277C330.595 888.381 330.536 887.302 330.829 886.246C331.271 884.656 332.858 883.787 334.144 882.945Z"/>
	<path fill="#FCC24F" d="M492.144 176.42Q512.189 176.604 532.233 176.415C538.428 176.389 544.836 176.016 551.006 176.412C550.989 179.427 550.86 182.5 551.027 185.508C552.325 187.872 553.677 189.549 556.379 190.307C559.007 191.043 561.361 190.304 563.666 189.037C562.597 195.004 563.424 201.937 563.445 208.049L563.502 248.507C541.045 248.948 518.484 248.434 496.022 248.237C479.844 248.095 463.678 248.384 447.499 248.07C447.324 233.573 447.44 219.056 447.427 204.556C447.422 197.718 446.435 188.064 447.913 181.438C448.476 178.913 450.8 177.826 452.808 176.542Q465.418 176.425 478.027 176.525C478.017 179.765 477.811 183.089 478.467 186.275C478.959 186.949 479.462 187.656 480.058 188.243C481.435 189.599 483.716 190.008 485.569 190.021C487.47 190.034 489.27 189.511 490.561 188.028C492.999 185.228 492.184 179.922 492.144 176.42Z"/>
	<path fill="#FAAB30" d="M514.813 217.475C514.933 218.918 515.136 220.203 514.617 221.595C502.407 221.43 490.171 221.624 477.959 221.66L475.973 221.242C475.32 220.232 475.138 220.028 475.095 218.845C478.215 216.68 507.087 218.512 513.621 217.574L514.813 217.475Z"/>
	<path fill="#FBFBFC" d="M475.217 205.475C488.456 205.422 501.74 205.101 514.974 205.257C514.961 209.21 515.331 213.575 514.813 217.475L513.621 217.574Q494.525 217.386 475.429 217.516L475.217 205.475Z"/>
	<path fill="#FBFBFC" d="M477.959 221.66C490.171 221.624 502.407 221.43 514.617 221.595C515.894 224.317 515.008 230.909 514.976 234.04L475.245 234.076C475.335 230.32 474.569 226.52 475.374 222.813C476.23 221.665 476.522 221.875 477.959 221.66Z"/>
	<path fill="#0BCDD3" d="M707.959 576.519L747.333 576.514C755.241 576.504 764.3 575.624 772.017 577.354C775.993 578.245 779.371 579.829 782.321 582.688C785.264 585.541 787.424 589.446 788.114 593.499C789.69 602.748 788.648 618.186 788.64 627.971L788.573 684.663C788.563 695.399 788.271 706.242 788.721 716.966L893.498 717.045L893.517 668.241C893.51 660.341 892.93 651.957 893.592 644.106C895.926 644.144 898.316 644.296 900.644 644.172Q900.378 680.564 900.687 716.956C908.511 716.933 915.964 717.934 921.834 723.709C930.249 731.989 928.484 741.61 929.515 752.106C925.831 753.439 882.584 752.541 875.034 752.542L737.497 752.608Q737.314 751.177 737.25 749.736C736.891 740.753 736.431 731.205 743.195 724.232C752.685 714.448 769.058 716.867 781.51 716.934L781.533 633.96L781.551 610.503C781.554 605.89 781.894 600.889 781.197 596.338C780.729 593.28 779.078 590.402 776.846 588.279C774.963 586.489 772.487 584.997 769.941 584.404C763.522 582.91 755.132 583.856 748.523 583.865L707.971 583.949L707.959 576.519Z"/>
	<path fill="#FBFBFC" d="M793.165 727.039C794.312 727.043 795.417 727.25 796.516 727.576C798.467 728.154 800.117 729.469 800.998 731.319C801.998 733.423 801.86 735.875 800.929 737.977C799.634 740.9 797.698 742.054 794.836 743.216C793.856 743.162 792.971 743.017 792.039 742.713C789.801 741.985 787.935 740.493 786.977 738.307C786.097 736.295 786.229 734.064 787.061 732.06C788.231 729.242 790.476 728.127 793.165 727.039Z"/>
	<path fill="#FBFBFC" d="M766.477 727.502C767.772 727.372 769.227 727.326 770.514 727.551C772.491 727.895 774.44 729.27 775.552 730.919C776.717 732.647 777.027 734.7 776.55 736.718C775.86 739.63 774.015 741.232 771.587 742.771C770.143 743.098 768.878 743.283 767.406 742.99C765.394 742.589 763.591 741.52 762.47 739.774C761.247 737.867 760.992 735.455 761.541 733.281C762.281 730.347 764.015 729.044 766.477 727.502Z"/>
	<path fill="#F4656C" d="M656.203 814.535C661.507 814.406 666.793 813.876 672.078 813.419C673.273 817.329 674.66 821.271 675.514 825.269C680.292 825.91 684.605 827.292 688.833 829.638C691.665 827.518 694.396 825.421 696.952 822.97C702.004 827.764 707.302 832.469 712.094 837.518C710.143 840.699 708.013 843.685 705.463 846.422C708.707 850.812 710.883 854.989 712.321 860.28Q718.202 861.113 724.064 862.07C724.102 866.117 725.708 877.58 723.226 880.159C720.843 882.634 716.649 882.767 713.451 883.28Q711.238 889.064 708.902 894.8Q711.832 899.541 714.881 904.206C710.11 909.727 704.95 915.073 699.025 919.379C696.681 917.371 694.36 915.359 692.113 913.241C686.604 915.695 681.846 917.553 675.857 918.467L673.709 925.581L671.904 930.224C666.988 929.963 655.719 930.713 652.361 927.133C652.14 926.898 651.932 926.651 651.717 926.411L650.549 917.351C642.968 913.274 636.948 908.325 630.598 902.579C627.217 904.016 624.173 905.842 621.046 907.76C617.375 901.961 614.124 895.87 610.772 889.881C614.067 886.357 621.154 882.666 621.66 877.789C620.369 874.647 620.881 868.119 621.766 864.906C621.764 864.704 621.775 864.501 621.76 864.299C621.476 860.363 614.695 855.909 611.79 853.38C614.519 847.409 618.487 841.557 621.958 835.973C625.299 836.925 628.545 838.877 631.756 840.259C638.26 834.642 643.769 829.499 652.124 826.897L652.01 821.138C651.946 819.358 651.746 817.568 652.318 815.853C653.709 814.714 654.452 814.785 656.203 814.535Z"/>
	<path fill="#F64A55" d="M665.837 836.721Q666.688 836.688 667.54 836.694Q668.391 836.7 669.241 836.745Q670.092 836.791 670.939 836.875Q671.787 836.96 672.629 837.083Q673.472 837.207 674.308 837.369Q675.144 837.531 675.971 837.732Q676.799 837.933 677.616 838.171Q678.434 838.41 679.24 838.686Q680.045 838.962 680.837 839.275Q681.629 839.588 682.406 839.937Q683.183 840.286 683.943 840.67Q684.703 841.055 685.444 841.474Q686.185 841.893 686.906 842.346Q687.627 842.799 688.327 843.284Q689.026 843.77 689.703 844.288Q690.379 844.805 691.031 845.353Q691.739 845.969 692.415 846.619Q693.092 847.269 693.735 847.952Q694.379 848.635 694.988 849.349Q695.597 850.062 696.169 850.805Q696.742 851.548 697.278 852.319Q697.813 853.089 698.31 853.885Q698.807 854.681 699.263 855.501Q699.72 856.32 700.136 857.161Q700.551 858.003 700.925 858.863Q701.298 859.724 701.629 860.602Q701.959 861.48 702.246 862.373Q702.533 863.267 702.775 864.173Q703.017 865.08 703.214 865.997Q703.411 866.914 703.562 867.84Q703.714 868.766 703.819 869.698Q703.925 870.631 703.984 871.567C704.59 881.401 700.856 891.595 694.233 898.874C687.712 906.04 678.422 909.699 668.881 910.223C659.299 910.359 651.044 908.335 643.457 902.238Q642.763 901.682 642.098 901.093Q641.432 900.503 640.797 899.882Q640.162 899.26 639.558 898.607Q638.955 897.955 638.384 897.273Q637.814 896.591 637.278 895.882Q636.742 895.172 636.243 894.438Q635.743 893.702 635.28 892.943Q634.817 892.185 634.393 891.404Q633.968 890.622 633.583 889.821Q633.198 889.02 632.853 888.201Q632.509 887.382 632.205 886.546Q631.901 885.711 631.64 884.861Q631.378 884.012 631.158 883.15Q630.939 882.289 630.763 881.418Q630.587 880.546 630.454 879.667Q630.322 878.788 630.233 877.904Q630.141 876.946 630.096 875.985Q630.051 875.024 630.052 874.062Q630.054 873.099 630.103 872.139Q630.151 871.178 630.247 870.22Q630.342 869.263 630.484 868.311Q630.625 867.359 630.813 866.416Q631.001 865.472 631.235 864.539Q631.469 863.605 631.748 862.684Q632.026 861.763 632.35 860.857Q632.673 859.951 633.04 859.062Q633.407 858.172 633.817 857.302Q634.227 856.431 634.679 855.582Q635.131 854.732 635.624 853.906Q636.116 853.079 636.648 852.278Q637.181 851.476 637.751 850.702Q638.322 849.927 638.93 849.181C645.808 840.882 655.402 837.655 665.837 836.721Z"/>
	<path fill="#F4656C" d="M666.182 848.703Q667.095 848.716 668.005 848.793Q668.914 848.87 669.816 849.01Q670.718 849.151 671.608 849.355Q672.498 849.559 673.371 849.826Q674.244 850.092 675.096 850.419Q675.949 850.746 676.776 851.132Q677.603 851.519 678.401 851.963Q679.198 852.406 679.963 852.905Q680.506 853.256 681.03 853.635Q681.554 854.014 682.057 854.419Q682.561 854.825 683.043 855.255Q683.525 855.686 683.984 856.141Q684.444 856.596 684.879 857.075Q685.314 857.553 685.724 858.053Q686.134 858.553 686.517 859.073Q686.901 859.594 687.257 860.133Q687.614 860.673 687.941 861.23Q688.269 861.787 688.568 862.36Q688.867 862.934 689.136 863.522Q689.405 864.11 689.643 864.711Q689.881 865.312 690.088 865.924Q690.295 866.537 690.47 867.159Q690.645 867.782 690.787 868.412Q690.93 869.043 691.04 869.68Q691.142 870.27 691.215 870.864Q691.288 871.458 691.332 872.055Q691.375 872.652 691.389 873.251Q691.402 873.849 691.386 874.448Q691.37 875.046 691.325 875.643Q691.279 876.24 691.203 876.834Q691.128 877.427 691.023 878.017Q690.919 878.606 690.785 879.19Q690.651 879.773 690.488 880.349Q690.325 880.925 690.134 881.493Q689.943 882.06 689.724 882.617Q689.505 883.174 689.259 883.72Q689.012 884.265 688.739 884.798Q688.466 885.33 688.166 885.849Q687.867 886.367 687.542 886.87Q687.217 887.373 686.868 887.859C682.338 894.132 676.319 896.686 668.964 897.972C662.559 897.999 656.746 896.851 651.645 892.695C646.445 888.459 643.159 881.841 642.553 875.194Q642.497 874.598 642.471 874Q642.444 873.402 642.448 872.803Q642.451 872.205 642.484 871.607Q642.517 871.009 642.579 870.414Q642.642 869.819 642.734 869.227Q642.826 868.636 642.947 868.05Q643.068 867.464 643.218 866.884Q643.368 866.305 643.547 865.733Q643.725 865.162 643.932 864.6Q644.139 864.038 644.373 863.488Q644.607 862.937 644.869 862.398Q645.13 861.86 645.417 861.335Q645.705 860.81 646.018 860.3Q646.332 859.79 646.67 859.296Q647.008 858.802 647.37 858.325Q647.733 857.849 648.118 857.391C652.76 851.843 659.123 849.211 666.182 848.703Z"/>
	<path fill="#FBFBFC" d="M664.331 856.552C667.002 856.341 669.438 856.544 671.952 857.528C676.694 859.384 680.315 863.179 682.141 867.915C683.735 872.046 683.713 876.459 681.845 880.495C679.454 885.659 675.312 888.254 670.164 890.109C666.738 890.555 663.952 890.598 660.702 889.259Q660.301 889.091 659.91 888.901Q659.518 888.712 659.137 888.503Q658.756 888.294 658.387 888.065Q658.017 887.836 657.66 887.588Q657.303 887.34 656.959 887.074Q656.615 886.808 656.286 886.524Q655.957 886.24 655.643 885.94Q655.328 885.639 655.03 885.323Q654.732 885.006 654.451 884.674Q654.17 884.343 653.907 883.997Q653.643 883.651 653.398 883.292Q653.154 882.933 652.928 882.561Q652.702 882.19 652.495 881.807Q652.289 881.424 652.103 881.031Q651.917 880.638 651.752 880.236Q651.587 879.834 651.443 879.424Q651.29 879.012 651.158 878.592Q651.026 878.172 650.916 877.747Q650.806 877.321 650.718 876.89Q650.63 876.459 650.565 876.024Q650.5 875.589 650.457 875.151Q650.414 874.713 650.394 874.274Q650.374 873.834 650.377 873.394Q650.379 872.954 650.405 872.515Q650.43 872.076 650.479 871.639Q650.527 871.202 650.597 870.768Q650.668 870.333 650.761 869.904Q650.854 869.474 650.97 869.049Q651.085 868.625 651.222 868.207Q651.359 867.789 651.517 867.378Q651.676 866.968 651.855 866.566Q652.035 866.165 652.235 865.773C654.825 860.746 659.126 858.193 664.331 856.552Z"/>
	<path fill="#F64A55" d="M721.449 320.056C718.682 312.762 716.638 305.843 716.457 297.989Q716.421 296.738 716.448 295.487Q716.475 294.236 716.564 292.988Q716.654 291.74 716.806 290.498Q716.958 289.256 717.173 288.023Q717.387 286.79 717.663 285.57Q717.939 284.35 718.276 283.145Q718.613 281.939 719.01 280.753Q719.407 279.566 719.864 278.401Q720.32 277.236 720.834 276.095Q721.348 274.954 721.919 273.841Q722.49 272.727 723.115 271.644Q723.742 270.56 724.421 269.51Q725.101 268.459 725.832 267.444Q726.564 266.429 727.345 265.451Q728.127 264.474 728.957 263.538Q729.786 262.601 730.662 261.707Q731.613 260.737 732.61 259.815Q733.607 258.892 734.648 258.02Q735.689 257.148 736.771 256.327Q737.854 255.507 738.975 254.741Q740.096 253.975 741.254 253.264Q742.412 252.554 743.603 251.901Q744.794 251.248 746.015 250.654Q747.237 250.061 748.486 249.528Q749.735 248.995 751.009 248.523Q752.283 248.052 753.578 247.644Q754.873 247.235 756.187 246.891Q757.501 246.547 758.83 246.267Q760.159 245.988 761.5 245.773Q762.841 245.559 764.192 245.411Q765.542 245.263 766.897 245.181Q768.253 245.099 769.611 245.084C784.479 244.922 797.588 251.46 808.033 261.704C811.574 266.324 814.714 271.013 817.354 276.207Q817.866 277.413 818.318 278.642Q818.769 279.872 819.16 281.122Q819.55 282.373 819.878 283.641Q820.206 284.909 820.471 286.192Q820.736 287.475 820.938 288.77Q821.139 290.064 821.276 291.367Q821.413 292.67 821.485 293.978Q821.558 295.286 821.565 296.596Q821.573 297.906 821.516 299.214Q821.459 300.523 821.337 301.827Q821.215 303.132 821.029 304.428Q820.843 305.725 820.593 307.011Q820.343 308.297 820.03 309.569Q819.716 310.841 819.34 312.096Q818.965 313.351 818.527 314.586Q818.09 315.82 817.592 317.032C812.134 330.153 801.629 341.125 788.397 346.478C775.21 351.812 760.986 351.02 747.985 345.507C736.602 340.68 726.694 331.308 721.449 320.056Z"/>
	<path fill="#FBFBFC" d="M739.398 307.845C738.026 302.726 737.397 298.062 738.356 292.761C739.832 284.602 744.704 277.6 751.487 272.938C758.419 268.173 766.64 265.947 775.01 267.623C784.218 269.466 790.838 274.629 795.983 282.303C792.724 285.169 788.729 287.131 784.874 289.069C782.134 285.966 779.22 283.412 775.277 281.95C771.171 280.427 766.811 280.896 762.859 282.62C758.465 284.159 755.117 286.723 753.101 290.991C750.898 295.653 751.03 300.314 751.742 305.262C747.5 305.85 743.558 306.926 739.398 307.845Z"/>
	<path fill="#E4DEEF" d="M762.859 282.62C766.811 280.896 771.171 280.427 775.277 281.95C779.22 283.412 782.134 285.966 784.874 289.069C788.729 287.131 792.724 285.169 795.983 282.303C800.483 290.059 802.381 298.116 800.09 306.99Q799.887 307.747 799.648 308.493Q799.408 309.24 799.133 309.973Q798.857 310.707 798.546 311.426Q798.235 312.146 797.889 312.849Q797.543 313.552 797.164 314.238Q796.784 314.923 796.371 315.59Q795.958 316.256 795.514 316.901Q795.069 317.547 794.593 318.169Q794.117 318.792 793.612 319.391Q793.106 319.99 792.572 320.563Q792.038 321.137 791.476 321.684Q790.915 322.23 790.327 322.749Q789.74 323.268 789.128 323.757Q788.516 324.247 787.88 324.705Q787.245 325.164 786.588 325.592Q785.931 326.019 785.254 326.414C778.04 330.558 768.966 331.528 760.978 329.292C752.604 326.949 746.178 321.4 742.064 313.817C741.023 311.898 740.209 309.869 739.398 307.845C743.558 306.926 747.5 305.85 751.742 305.262C751.03 300.314 750.898 295.653 753.101 290.991C755.117 286.723 758.465 284.159 762.859 282.62Z"/>
	<path fill="#F64A55" d="M762.859 282.62C766.811 280.896 771.171 280.427 775.277 281.95C779.22 283.412 782.134 285.966 784.874 289.069L784.932 289.448C787.617 294.224 789.052 298.823 787.416 304.303C786.017 308.987 782.592 313.016 778.301 315.326Q777.876 315.555 777.441 315.762Q777.005 315.968 776.559 316.152Q776.113 316.336 775.658 316.496Q775.203 316.656 774.74 316.793Q774.277 316.929 773.808 317.042Q773.339 317.154 772.865 317.242Q772.391 317.33 771.913 317.393Q771.434 317.456 770.954 317.494Q770.473 317.533 769.991 317.546Q769.508 317.559 769.026 317.547Q768.544 317.535 768.063 317.498Q767.582 317.462 767.104 317.4Q766.625 317.338 766.151 317.252Q765.676 317.165 765.207 317.054Q764.737 316.943 764.274 316.808Q763.811 316.673 763.356 316.514C757.693 314.557 754.247 310.51 751.742 305.262C751.03 300.314 750.898 295.653 753.101 290.991C755.117 286.723 758.465 284.159 762.859 282.62Z"/>
	<path fill="#F4656C" d="M762.859 282.62C766.811 280.896 771.171 280.427 775.277 281.95C779.22 283.412 782.134 285.966 784.874 289.069L784.932 289.448C781.992 291.185 779.08 293.581 776.728 296.054C775.935 294.983 775.128 293.774 774.118 292.899C772.149 291.194 770.029 291.418 767.606 291.6C769.71 288.425 774.059 286.953 775.684 283.575L775.296 282.778C771.897 281.445 766.52 282.654 762.859 282.62Z"/>
	<path fill="#F3CA8F" d="M767.606 291.6C770.029 291.418 772.149 291.194 774.118 292.899C775.128 293.774 775.935 294.983 776.728 296.054C777.007 297.404 777.364 298.848 777.283 300.232C777.172 302.135 776.39 304.238 774.939 305.524C773.485 306.813 771.478 307.302 769.569 307.178C767.047 307.014 764.576 305.674 763.038 303.675C761.85 302.13 761.227 300.245 761.627 298.303C762.316 294.953 764.86 293.247 767.606 291.6Z"/>
	<path fill="#534DC6" d="M532.195 426.92L635.369 426.992L663.999 426.981C670.502 426.983 677.622 426.469 684.019 427.712C689.134 428.706 694.327 432.105 697.975 435.757C701.844 439.63 704.866 444.498 706.234 449.82C708.903 460.2 707.601 472.906 707.643 483.611Q707.905 507.054 707.832 530.499L707.874 537.626L707.959 576.519L707.971 583.949L707.985 675.011C671.757 675.507 635.345 675.37 599.115 674.906C592.253 674.382 585.248 674.606 578.363 674.587L578.44 656.669C585.534 656.669 638.631 657.368 640.879 656.157L689.049 656.203C689.428 629.442 689.214 602.646 689.247 575.881L689.455 444.529L591.605 444.585C584.217 443.91 576.46 444.358 569.036 444.363L526.385 444.394C526.471 438.964 525.636 433.065 526.397 427.723C528.009 426.777 530.362 426.989 532.195 426.92Z"/>
	<path fill="#E4DEEF" d="M101.822 769.638C101.009 765.995 101.204 761.378 101.197 757.627C101.184 750.154 102.444 743.694 108.053 738.275C116.548 730.068 128.599 732.164 139.356 732.505L146.485 732.621C160.833 732.91 175.21 732.494 189.564 732.538C204.612 732.584 219.729 733.093 234.768 732.609C237.455 732.588 240.18 732.47 242.86 732.642C251.3 733.327 260.321 731.558 268.637 732.917C274.656 734.323 279.971 736.93 283.34 742.363C288.203 750.206 286.702 760.624 286.927 769.468C286.944 776.713 285.805 812.028 288.16 815.935C284.413 824.127 283.196 830.645 283.69 839.598C281.264 839.647 278.824 839.756 276.398 839.732L276.438 848.966L276.256 851.693C253.846 852.214 231.39 851.669 208.972 851.891L208.86 849.092C209.369 844.632 208.975 839.963 208.807 835.483C198.915 835.58 182.539 836.699 173.4 835.358L173.46 827.213L173.439 793.185C180.349 792.839 220.677 792.237 225.018 794.132L225.344 794.617L225.966 793.685C234.654 792.903 243.755 793.469 252.492 793.545Q252.602 781.723 252.572 769.9C202.356 770.622 152.103 769.68 101.878 770.091L101.822 769.638Z"/>
	<path fill="#9E5FF3" d="M208.86 849.092C231.358 848.501 253.929 849.039 276.438 848.966L276.256 851.693C253.846 852.214 231.39 851.669 208.972 851.891L208.86 849.092Z"/>
	<path fill="#3723AC" d="M173.46 827.213Q194.227 827.511 214.995 827.417L214.974 834.998L188.557 834.984C183.668 834.984 178.219 834.564 173.4 835.358L173.46 827.213Z"/>
	<path fill="#1E1280" d="M225.964 827.113L267.541 827.186L267.525 834.921L225.973 834.922L225.964 827.113Z"/>
	<path fill="#21BDB7" d="M252.492 793.545L267.504 793.611L267.541 827.186L225.964 827.113C225.928 815.977 225.741 804.819 225.966 793.685C234.654 792.903 243.755 793.469 252.492 793.545Z"/>
	<path fill="#76AFF9" d="M173.439 793.185C186.839 794.438 201.548 793.438 215.066 793.386L214.995 827.417Q194.227 827.511 173.46 827.213L173.439 793.185Z"/>
	<path fill="#F4656C" d="M101.822 769.638C101.009 765.995 101.204 761.378 101.197 757.627C101.184 750.154 102.444 743.694 108.053 738.275C116.548 730.068 128.599 732.164 139.356 732.505L146.485 732.621C160.833 732.91 175.21 732.494 189.564 732.538C204.612 732.584 219.729 733.093 234.768 732.609C237.455 732.588 240.18 732.47 242.86 732.642C251.3 733.327 260.321 731.558 268.637 732.917C274.656 734.323 279.971 736.93 283.34 742.363C288.203 750.206 286.702 760.624 286.927 769.468Q269.931 769.624 252.935 769.507L101.822 769.638Z"/>
	<path fill="#FBFBFC" d="M126.501 744.075C127.74 743.989 129.043 743.866 130.281 743.988C132.147 744.172 134.049 745.479 135.063 747.027C136.051 748.536 136.283 750.319 135.801 752.043C135.025 754.814 133.002 756.286 130.591 757.593C129.48 757.721 128.306 757.887 127.206 757.619C125.311 757.157 123.564 755.933 122.544 754.267C121.554 752.648 121.367 750.583 121.888 748.77C122.588 746.338 124.408 745.235 126.501 744.075Z"/>
	<path fill="#FBFBFC" d="M148.912 743.592C150.319 743.505 151.828 743.434 153.211 743.757C155.158 744.213 156.977 745.508 158.046 747.192C159.033 748.746 159.291 750.524 158.784 752.287C157.995 755.025 155.919 756.401 153.564 757.726C152.307 757.916 150.952 758.07 149.696 757.783C147.853 757.36 146.047 756.116 145.055 754.501C144.001 752.783 143.747 750.626 144.27 748.691C144.987 746.039 146.65 744.928 148.912 743.592Z"/>
	<path fill="#F64A55" d="M268.637 732.917C274.656 734.323 279.971 736.93 283.34 742.363C288.203 750.206 286.702 760.624 286.927 769.468Q269.931 769.624 252.935 769.507C253.319 757.415 253.019 745.247 253.182 733.141C258.324 733.173 263.508 733.347 268.637 732.917Z"/>
	<path fill="#FBFBFC" d="M137.415 448.496C140.42 447.392 143.117 446.897 146.156 448.206C149.117 449.482 151.538 452.086 153.019 454.915C153.731 457.94 154.198 460.65 153.882 463.789C178.608 470.878 197.688 481.978 210.536 505.141C215.766 514.57 218.179 524.372 220.717 534.725C217.596 536.503 214.729 538.825 213.847 542.498C212.984 546.092 214.217 550.105 216.241 553.096C217.291 554.646 218.683 555.847 220.134 557.008C215.738 581.139 206.804 598.707 186.164 613.125C175.968 620.247 164.355 623.978 152.352 626.806C152.737 629.704 152.791 632.309 151.963 635.135C150.607 638.105 148.264 639.373 146.392 641.827C144.474 642.03 142.661 642.028 140.738 642.05C139.738 642.062 140.097 642.031 139.098 642.536L138.773 643.361L138.341 642.083C135.342 639.966 132.928 637.793 130.726 634.855C115.406 634.273 95.889 624.259 84.4247 614.416C65.6417 598.288 54.1588 576.421 52.2896 551.742C52.0255 551.508 51.7661 551.267 51.4966 551.039C50.7345 550.392 49.9278 549.796 49.2503 549.054C47.3021 546.922 45.7726 543.619 45.9309 540.686C46.1622 536.403 49.3164 533.569 52.3512 530.993C55.6567 515.833 60.1061 502.64 69.6268 490.188Q70.3229 489.287 71.0409 488.403Q71.7589 487.519 72.4984 486.652Q73.2378 485.786 73.9982 484.938Q74.7587 484.091 75.5396 483.262Q76.3206 482.433 77.1217 481.623Q77.9227 480.814 78.7433 480.024Q79.564 479.235 80.4037 478.465Q81.2435 477.696 82.1018 476.947Q82.9601 476.199 83.8365 475.472Q84.7129 474.744 85.6069 474.039Q86.5009 473.333 87.4118 472.65Q88.3228 471.966 89.2503 471.305Q90.1777 470.644 91.1211 470.006Q92.0645 469.368 93.0232 468.754Q93.9819 468.139 94.9554 467.548Q95.9288 466.957 96.9165 466.39Q97.9042 465.823 98.9054 465.28Q99.9067 464.738 100.921 464.22Q101.935 463.702 102.962 463.209Q103.988 462.716 105.027 462.248Q106.065 461.78 107.115 461.338Q108.164 460.896 109.224 460.48Q110.285 460.064 111.355 459.674Q112.424 459.284 113.504 458.92Q114.583 458.556 115.671 458.219Q116.758 457.881 117.854 457.571Q118.95 457.26 120.053 456.977Q121.156 456.693 122.265 456.437Q123.375 456.18 124.491 455.951Q125.606 455.722 126.727 455.52Q127.848 455.318 128.973 455.144Q130.099 454.97 131.228 454.823C132.848 452.057 134.805 450.329 137.415 448.496Z"/>
	<path fill="#FDACBE" d="M137.528 470.558C140.78 471.216 143.379 471.359 146.619 470.611C146.607 478.873 147.499 488.425 145.569 496.439C144.091 494.812 143.257 493.753 141.028 493.397L138.229 495.57C137.608 487.276 137.57 478.873 137.528 470.558Z"/>
	<path fill="#0BCDD3" d="M52.3512 530.993C55.4913 530.245 57.5211 530.261 60.574 531.328C62.9877 533.079 64.843 534.814 66.3861 537.378C66.4943 540.012 66.6693 542.645 66.4804 545.277C64.7499 548.208 63.2812 550.171 60.4047 552.064C57.5438 552.325 55.1134 552.153 52.2896 551.742C52.0255 551.508 51.7661 551.267 51.4966 551.039C50.7345 550.392 49.9278 549.796 49.2503 549.054C47.3021 546.922 45.7726 543.619 45.9309 540.686C46.1622 536.403 49.3164 533.569 52.3512 530.993Z"/>
	<path fill="#9E5FF3" d="M129.625 626.369C131.537 622.641 133.62 619.887 137.81 618.655Q138.353 618.498 138.91 618.397Q139.466 618.297 140.03 618.254Q140.594 618.211 141.159 618.227Q141.724 618.242 142.285 618.315Q142.846 618.389 143.396 618.519Q143.946 618.65 144.48 618.836Q145.014 619.023 145.526 619.263Q146.038 619.503 146.522 619.795C149.338 621.46 150.977 623.916 152.352 626.806C152.737 629.704 152.791 632.309 151.963 635.135C150.607 638.105 148.264 639.373 146.392 641.827C144.474 642.03 142.661 642.028 140.738 642.05C139.738 642.062 140.097 642.031 139.098 642.536L138.773 643.361L138.341 642.083C135.342 639.966 132.928 637.793 130.726 634.855C129.701 631.985 129.48 629.406 129.625 626.369Z"/>
	<path fill="#F64A55" d="M137.415 448.496C140.42 447.392 143.117 446.897 146.156 448.206C149.117 449.482 151.538 452.086 153.019 454.915C153.731 457.94 154.198 460.65 153.882 463.789C151.854 467.08 149.975 468.708 146.619 470.611C143.379 471.359 140.78 471.216 137.528 470.558C134.383 468.495 132.921 466.663 131.17 463.34C130.666 460.273 130.628 457.904 131.228 454.823C132.848 452.057 134.805 450.329 137.415 448.496Z"/>
	<path fill="#FDACBE" d="M52.3512 530.993C55.6567 515.833 60.1061 502.64 69.6268 490.188Q70.3229 489.287 71.0409 488.403Q71.7589 487.519 72.4984 486.652Q73.2378 485.786 73.9982 484.938Q74.7587 484.091 75.5396 483.262Q76.3206 482.433 77.1217 481.623Q77.9227 480.814 78.7433 480.024Q79.564 479.235 80.4037 478.465Q81.2435 477.696 82.1018 476.947Q82.9601 476.199 83.8365 475.472Q84.7129 474.744 85.6069 474.039Q86.5009 473.333 87.4118 472.65Q88.3228 471.966 89.2503 471.305Q90.1777 470.644 91.1211 470.006Q92.0645 469.368 93.0232 468.754Q93.9819 468.139 94.9554 467.548Q95.9288 466.957 96.9165 466.39Q97.9042 465.823 98.9054 465.28Q99.9067 464.738 100.921 464.22Q101.935 463.702 102.962 463.209Q103.988 462.716 105.027 462.248Q106.065 461.78 107.115 461.338Q108.164 460.896 109.224 460.48Q110.285 460.064 111.355 459.674Q112.424 459.284 113.504 458.92Q114.583 458.556 115.671 458.219Q116.758 457.881 117.854 457.571Q118.95 457.26 120.053 456.977Q121.156 456.693 122.265 456.437Q123.375 456.18 124.491 455.951Q125.606 455.722 126.727 455.52Q127.848 455.318 128.973 455.144Q130.099 454.97 131.228 454.823C130.628 457.904 130.666 460.273 131.17 463.34C107.508 467.999 87.2357 479.338 73.6213 499.689C67.1764 509.323 63.6284 520.236 60.574 531.328C57.5211 530.261 55.4913 530.245 52.3512 530.993Z"/>
	<path fill="#FDACBE" d="M52.2896 551.742C55.1134 552.153 57.5438 552.325 60.4047 552.064Q60.5363 553.127 60.6942 554.185Q60.8521 555.244 61.0363 556.299Q61.2205 557.354 61.4308 558.404Q61.6411 559.453 61.8775 560.498Q62.1138 561.542 62.376 562.58Q62.6382 563.618 62.9261 564.649Q63.214 565.68 63.5274 566.704Q63.8409 567.728 64.1796 568.744Q64.5184 569.759 64.8822 570.766Q65.2461 571.773 65.6349 572.771Q66.0237 573.768 66.4371 574.756Q66.8505 575.743 67.2884 576.72Q67.7262 577.698 68.1882 578.663Q68.6502 579.629 69.136 580.583Q69.6218 581.537 70.1312 582.479Q70.6405 583.421 71.1731 584.35Q71.7057 585.278 72.2613 586.194Q72.8168 587.109 73.3948 588.01Q73.9729 588.911 74.5732 589.798Q75.1734 590.684 75.7956 591.556Q76.4177 592.427 77.0612 593.283Q77.7048 594.138 78.3694 594.978Q79.034 595.817 79.7193 596.64Q80.4045 597.462 81.11 598.268Q81.8155 599.073 82.5408 599.86Q83.266 600.648 84.0107 601.417Q84.7553 602.187 85.5187 602.937Q86.2822 603.688 87.0641 604.419Q87.846 605.151 88.6458 605.862Q89.4456 606.574 90.2629 607.266Q91.0802 607.958 91.9143 608.629Q92.7485 609.3 93.5991 609.95C104.46 618.31 116.423 623.116 129.625 626.369C129.48 629.406 129.701 631.985 130.726 634.855C115.406 634.273 95.889 624.259 84.4247 614.416C65.6417 598.288 54.1588 576.421 52.2896 551.742Z"/>
	<path fill="#FCC24F" d="M138.229 495.57L141.028 493.397C140.74 502.914 140.516 594.639 141.302 596.287L142.423 596.788C142.295 596.811 142.169 596.851 142.039 596.857C133.573 597.274 123.406 590.48 117.591 584.792C100.767 568.334 93.6006 542.641 93.4874 519.714C111.389 514.75 126.599 511.658 138.229 495.57Z"/>
	<path fill="#FAAB30" d="M141.028 493.397C143.257 493.753 144.091 494.812 145.569 496.439C156.95 510.765 170.445 516.411 188.074 519.718C188.071 543.026 182.372 567.558 165.425 584.645C159.335 590.786 151.239 596.076 142.423 596.788L141.302 596.287C140.516 594.639 140.74 502.914 141.028 493.397Z"/>
	<path fill="#B5B8E3" d="M322.413 674.931C348.941 674.108 375.622 674.791 402.166 674.867L525.716 674.951L573.889 675.036C582.232 675.04 590.793 675.419 599.115 674.906C635.345 675.37 671.757 675.507 707.985 675.011C708.035 689.637 709.364 703.071 698.266 714.324C690.592 722.105 681.491 723.603 671.008 723.582C635.881 723.511 600.647 722.944 565.53 723.571L565.535 744.881L565.573 778.378C554.832 778.296 465.774 779.041 461.965 777.68L461.592 777.691L461.458 723.267C426.777 721.707 391.787 723.022 357.067 722.756C346.841 722.678 337.969 720.259 330.735 712.636C320.707 702.069 322.311 688.33 322.413 674.931Z"/>
	<path fill="#3723AC" d="M511.579 686.511C512.695 686.513 513.832 686.514 514.919 686.798C517.414 687.451 519.53 689.023 520.725 691.33Q520.914 691.698 521.063 692.084Q521.213 692.469 521.322 692.868Q521.43 693.267 521.497 693.676Q521.563 694.084 521.587 694.497Q521.61 694.91 521.591 695.323Q521.571 695.736 521.509 696.145Q521.446 696.554 521.341 696.954Q521.237 697.354 521.091 697.741C520.036 700.491 518.153 701.84 515.566 703.029C514.436 703.061 513.248 703.125 512.132 702.916C509.784 702.475 507.542 700.91 506.344 698.843C505.216 696.895 505.044 694.483 505.768 692.364C506.812 689.303 508.842 687.979 511.579 686.511Z"/>
	<path fill="#3723AC" d="M461.935 723.52C496.442 723.97 531.02 723.698 565.53 723.571L565.535 744.881C561.739 743.525 540.936 744.39 534.774 744.395L461.896 744.584L461.935 723.52Z"/>
	<path fill="#534DC6" d="M461.896 744.584L534.774 744.395C540.936 744.39 561.739 743.525 565.535 744.881L565.573 778.378C554.832 778.296 465.774 779.041 461.965 777.68C462.329 766.694 462.001 755.579 461.896 744.584Z"/>
	<path fill="#21BDB7" d="M305.332 243.62L343.644 243.505C350.869 243.483 359.358 242.562 366.404 244.177C370.086 245.022 373.726 247.276 376.366 249.945C379.009 252.616 380.448 255.84 381.031 259.527C381.788 264.312 381.464 269.528 381.469 274.364L381.476 299.194C381.477 324.211 382.087 349.408 381.37 374.402C381.208 380.045 380.174 384.257 375.832 388.253C373.472 390.425 370.684 390.983 367.569 391.376C357.328 392.666 345.604 391.769 335.178 391.81L269.972 391.971L260.491 391.982L199.757 391.641C190.099 391.615 177.783 392.628 168.522 391.2C165.712 390.767 163.223 389.668 161.09 387.765C158.811 385.73 157.043 382.844 156.433 379.836C154.831 371.945 155.884 360.731 155.894 352.426L155.992 297.472C156.022 287.775 156.641 277.604 155.84 267.963L155.796 267.479C156.164 260.134 158.197 255.594 162.755 249.889C165.968 247.236 169.916 244.934 174.089 244.306C184.236 242.778 201.672 243.697 212.465 243.629L305.332 243.62Z"/>
	<path fill="#FBFBFC" d="M187.906 252.081C189.041 252.015 190.25 251.908 191.375 252.109C193.523 252.492 195.557 253.978 196.746 255.782Q196.967 256.116 197.151 256.472Q197.335 256.828 197.479 257.201Q197.624 257.575 197.728 257.962Q197.832 258.349 197.894 258.745Q197.956 259.14 197.975 259.54Q197.994 259.94 197.97 260.34Q197.947 260.74 197.88 261.135Q197.814 261.53 197.706 261.916C196.899 264.873 194.853 266.304 192.275 267.676C191.12 267.794 190.024 267.917 188.872 267.709C186.775 267.33 184.779 266.076 183.623 264.271C182.441 262.426 182.21 260.158 182.756 258.058C183.511 255.149 185.453 253.592 187.906 252.081Z"/>
	<path fill="#FBFBFC" d="M209.088 252.044C210.418 251.941 211.943 251.815 213.264 252.078C215.212 252.467 217.085 253.896 218.172 255.527Q218.381 255.841 218.557 256.174Q218.734 256.507 218.875 256.856Q219.017 257.205 219.124 257.567Q219.23 257.929 219.299 258.299Q219.368 258.67 219.4 259.045Q219.431 259.421 219.425 259.798Q219.419 260.174 219.375 260.549Q219.331 260.923 219.249 261.291C218.619 264.205 216.815 266 214.443 267.634C213.055 267.815 211.658 267.987 210.264 267.757C208.074 267.396 206.045 266.084 204.868 264.198C203.75 262.408 203.529 260.31 203.995 258.274C204.706 255.167 206.506 253.695 209.088 252.044Z"/>
	<path fill="#F4656C" d="M176.036 275.059C193.028 275.971 210.341 275.537 227.364 275.541L312.353 275.471L341.843 275.433C346.841 275.429 352.726 274.851 357.601 275.778C358.871 276.02 358.609 276.07 359.263 277.052C359.879 283.58 359.634 290.274 359.654 296.831L359.769 327.741C359.801 336.068 360.926 360.522 359.324 367.431C331.907 367.91 304.417 367.542 276.991 367.624L175.972 368.487L176.036 275.059Z"/>
	<path fill="#3723AC" d="M229.899 338.72C230.179 338.158 230.504 337.386 230.913 336.886C231.899 335.682 233.21 335.657 234.641 335.506C236.068 336.165 236.291 336.028 236.846 337.469C236.529 339.446 235.54 341.055 234.601 342.79L229.899 338.72Z"/>
	<path fill="#FBFBFC" d="M254.823 328.541L313.55 328.813C322.539 328.834 335.61 327.893 344.229 329.215C345.164 330.324 345.022 331.664 345.081 333.041C326.815 333.358 308.519 332.929 290.248 332.979C278.743 333.011 266.835 334.017 255.368 333.06C254.526 331.773 254.807 330.026 254.823 328.541Z"/>
	<path fill="#FDACBE" d="M254.39 288.729C277.575 287.763 301.036 288.521 324.259 288.264C323.013 289.974 321.596 291.491 320.165 293.044C319.985 293.228 319.813 293.419 319.625 293.594C318.693 294.463 318.047 294.78 316.775 294.918C309.692 295.692 302.14 295.152 294.984 295.208Q274.482 295.543 253.978 295.436C253.923 293.298 253.559 290.725 254.39 288.729Z"/>
	<path fill="#FBFBFC" d="M254.716 344.041C266.648 343.586 278.754 344.013 290.701 344.014C306.149 344.015 321.672 343.693 337.111 344.169C337.263 346.44 337.715 349.614 336.875 351.743C327.208 351.984 317.446 351.635 307.773 351.581Q281.088 351.409 254.403 351.518C254.258 348.909 254.297 346.637 254.716 344.041Z"/>
	<path fill="#FBFBFC" d="M254.37 305.963C284.729 305.933 315.201 305.632 345.545 306.449L345.492 314.297C336.01 315.358 323.089 314.376 313.116 314.336L254.442 314.515L254.37 305.963Z"/>
	<path fill="#681A81" d="M207.113 314.438C206.354 313.768 205.566 313.136 205.002 312.284C204.632 311.727 204.74 310.859 204.967 310.25C205.191 309.647 205.711 308.985 206.319 308.75C207.717 308.21 209.248 308.475 210.566 309.098C210.538 309.824 210.489 310.525 210.402 311.248L210.312 311.95L210.993 312.75C213.353 313.539 216.185 313.605 218.568 312.866C219.844 311.548 219.96 310.106 220.515 308.387C221.58 307.961 223.341 308.151 224.412 308.532C225.599 308.954 225.683 309.224 226.075 310.296C225.74 312 224.459 312.861 223.23 313.965L230.11 321.039C231.528 320.082 233.178 318.676 234.986 319.098C235.613 319.245 236.512 319.632 236.799 320.244C237.435 321.599 236.705 323.031 236.224 324.326C234.856 325.034 233.89 325.561 233.005 326.898C231.534 329.12 231.779 331.992 232.204 334.471C233.143 335.544 233.196 335.387 234.641 335.506C233.21 335.657 231.899 335.682 230.913 336.886C230.504 337.386 230.179 338.158 229.899 338.72Q227.79 340.903 225.721 343.124C224.574 344.376 223.952 345.063 224.016 346.785C224.773 347.802 225.248 348.355 225.547 349.626C224.384 350.826 221.69 351.184 220.08 351.622C219.628 349.902 219.058 348.209 218.523 346.513C216.538 346.47 213.309 346.103 211.493 346.843C210.1 347.412 209.978 349.736 209.263 351.032C208.27 351.339 206.783 351.497 205.77 351.124C204.792 350.764 204.282 350.192 204.02 349.178C203.576 347.458 204.68 345.904 205.48 344.472L200.642 338.948C199.469 339.913 198.519 340.882 196.957 341.101C195.668 340.866 195.181 340.688 194.257 339.75C194.065 338.319 194.196 338.074 194.773 336.732C196.053 335.487 197.646 335.365 199.328 335.028C199.044 332.027 198.885 329.003 198.668 325.995C197.212 325.661 195.865 325.501 194.743 324.433C194.184 323.133 194.029 322.5 194.222 321.093C195.048 320.081 195.261 319.971 196.487 319.501C198.209 319.684 199.153 320.828 200.362 321.946C202.664 319.497 204.869 316.941 207.113 314.438Z"/>
	<path fill="#FBFBFC" d="M322.362 582.597C322.857 613.321 322.736 644.203 322.413 674.931C322.311 688.33 320.707 702.069 330.735 712.636C337.969 720.259 346.841 722.678 357.067 722.756C391.787 723.022 426.777 721.707 461.458 723.267L461.592 777.691L461.965 777.68C465.774 779.041 554.832 778.296 565.573 778.378C574.426 778.221 596.529 776.868 603.872 778.292C606.429 778.788 608.904 779.906 610.833 781.677C613.693 784.303 614.556 787.553 614.606 791.315C614.653 794.87 614.456 798.428 614.444 801.983C622.814 801.897 638.475 800.401 645.954 802.356C648.478 803.016 650.837 804.243 652.655 806.137C654.782 808.354 656.021 811.49 656.203 814.535C654.452 814.785 653.709 814.714 652.318 815.853C651.746 817.568 651.946 819.358 652.01 821.138L652.124 826.897C643.769 829.499 638.26 834.642 631.756 840.259C628.545 838.877 625.299 836.925 621.958 835.973C618.487 841.557 614.519 847.409 611.79 853.38C614.695 855.909 621.476 860.363 621.76 864.299C621.775 864.501 621.764 864.704 621.766 864.906C593.111 866.503 561.483 865.41 532.493 865.386L366.447 865.021Q366.62 854.681 366.395 844.342C366.464 842.822 366.56 841.646 365.95 840.204C364.382 839.102 361.814 839.568 359.963 839.633L349.22 839.711C340.187 839.923 331.158 839.502 322.127 839.677L318.016 839.583L295.512 839.572L283.69 839.598C283.196 830.645 284.413 824.127 288.16 815.935C285.805 812.028 286.944 776.713 286.927 769.468C286.702 760.624 288.203 750.206 283.34 742.363C279.971 736.93 274.656 734.323 268.637 732.917C260.321 731.558 251.3 733.327 242.86 732.642C242.449 705.174 243.028 677.695 242.805 650.221L242.55 617.137C242.519 611.201 242.094 604.859 242.869 598.978C243.448 594.584 244.874 590.699 248.011 587.465C250.304 585.101 252.987 583.732 256.209 583.118C263.553 581.716 272.017 582.509 279.477 582.516L322.362 582.597Z"/>
	<path fill="#0BCDD3" d="M335.483 800.069C345.449 804.098 353.151 811.212 357.323 821.239C359.852 827.316 360.133 833.132 359.963 839.633L349.22 839.711C349.447 834.992 349.402 830.058 348.208 825.463C345.586 815.375 338.624 809.176 330.019 803.976C331.763 802.586 333.656 801.351 335.483 800.069Z"/>
	<path fill="#42D9EB" d="M330.019 803.976C338.624 809.176 345.586 815.375 348.208 825.463C349.402 830.058 349.447 834.992 349.22 839.711C340.187 839.923 331.158 839.502 322.127 839.677L318.016 839.583C318.004 836.872 317.981 834.15 318.14 831.444C318.751 821.068 322.102 811.047 330.019 803.976Z"/>
	<path fill="#28ABC6" d="M322.645 797.537C326.823 797.626 331.583 798.542 335.483 800.069C333.656 801.351 331.763 802.586 330.019 803.976C322.102 811.047 318.751 821.068 318.14 831.444C317.981 834.15 318.004 836.872 318.016 839.583L295.512 839.572L283.69 839.598C283.196 830.645 284.413 824.127 288.16 815.935C289.771 813.345 291.451 810.975 293.616 808.813C301.546 800.896 311.598 797.549 322.645 797.537Z"/>
	<path fill="#1D78B4" d="M288.16 815.935C289.771 813.345 291.451 810.975 293.616 808.813C301.546 800.896 311.598 797.549 322.645 797.537C322.476 797.768 322.317 798.006 322.14 798.231C320.412 800.418 316.098 801.474 313.574 802.733C298.67 810.168 295.614 824.298 295.512 839.572L283.69 839.598C283.196 830.645 284.413 824.127 288.16 815.935Z"/>
	<path fill="#E4DEEF" d="M461.592 777.691L461.965 777.68C465.774 779.041 554.832 778.296 565.573 778.378C574.426 778.221 596.529 776.868 603.872 778.292C606.429 778.788 608.904 779.906 610.833 781.677C613.693 784.303 614.556 787.553 614.606 791.315C614.653 794.87 614.456 798.428 614.444 801.983C622.814 801.897 638.475 800.401 645.954 802.356C648.478 803.016 650.837 804.243 652.655 806.137C654.782 808.354 656.021 811.49 656.203 814.535C654.452 814.785 653.709 814.714 652.318 815.853C651.746 817.568 651.946 819.358 652.01 821.138C636.149 821.761 620.16 821.478 604.284 821.488L507.327 821.342L421.464 821.474C406.892 821.472 391.758 822.24 377.24 821.298C374.342 821.11 370.94 820.639 368.726 818.566C366.792 816.756 366.229 813.546 366.206 811.01C366.181 808.388 367.025 805.912 368.956 804.087C370.739 802.402 373.077 801.556 375.457 801.15C383.395 799.798 402.928 801.213 411.886 801.516C411.852 797.547 411.546 793.363 412.151 789.439C412.655 787.243 413.506 785.02 414.86 783.202C416.668 780.774 419.316 779.166 422.233 778.434C432.557 775.841 449.725 779.593 460.718 777.842C461.01 777.796 461.301 777.741 461.592 777.691Z"/>
	<path fill="#7B7DE8" d="M461.592 777.691L461.965 777.68C465.774 779.041 554.832 778.296 565.573 778.378C574.426 778.221 596.529 776.868 603.872 778.292C606.429 778.788 608.904 779.906 610.833 781.677C613.693 784.303 614.556 787.553 614.606 791.315C614.653 794.87 614.456 798.428 614.444 801.983C592.855 802.616 571.084 802.082 549.48 802.11L412.379 802.022C412.383 797.83 412.471 793.62 412.151 789.439C412.655 787.243 413.506 785.02 414.86 783.202C416.668 780.774 419.316 779.166 422.233 778.434C432.557 775.841 449.725 779.593 460.718 777.842C461.01 777.796 461.301 777.741 461.592 777.691Z"/>
	<path fill="#FBFBFC" d="M525.899 426.581C527.987 426.688 530.118 426.709 532.195 426.92C530.362 426.989 528.009 426.777 526.397 427.723C525.636 433.065 526.471 438.964 526.385 444.394L569.036 444.363C576.46 444.358 584.217 443.91 591.605 444.585L689.455 444.529L689.247 575.881C689.214 602.646 689.428 629.442 689.049 656.203L640.879 656.157C638.631 657.368 585.534 656.669 578.44 656.669L578.363 674.587C585.248 674.606 592.253 674.382 599.115 674.906C590.793 675.419 582.232 675.04 573.889 675.036L525.716 674.951L402.166 674.867C375.622 674.791 348.941 674.108 322.413 674.931C322.736 644.203 322.857 613.321 322.362 582.597L322.217 575.455Q322.423 558.497 322.387 541.537C326.392 541.756 332.286 542.887 335.853 540.86C338.252 539.497 339.533 536.688 340.084 534.088C340.34 532.882 340.29 532.818 339.631 531.851C333.991 532.374 328.004 532.049 322.327 532.082Q322.448 523.107 322.19 514.135C322.184 505.696 322.499 497.169 322.081 488.746C323.474 472.919 317.999 447.386 329.557 435.25C333.202 431.423 338.014 428.44 343.266 427.541C349.903 426.404 357.021 426.879 363.742 426.892L392.79 426.887C434.026 426.846 475.385 427.56 516.603 426.621L525.899 426.581Z"/>
	<path fill="#3723AC" d="M493.129 585.56L498.429 585.553C498.767 592.204 498.627 598.967 498.474 605.625Q498.338 621.301 498.44 636.976C508.527 637.005 519.437 637.885 529.433 636.714C529.437 631.322 528.324 622.314 530.856 617.63L531.658 617.212C533.217 618.132 533.78 619.742 534.176 621.425C535.256 626.017 535.505 634.744 532.876 638.703Q532.691 638.987 532.478 639.25Q532.265 639.514 532.026 639.753Q531.787 639.993 531.525 640.207Q531.262 640.421 530.979 640.607Q530.696 640.792 530.395 640.948Q530.094 641.103 529.778 641.226Q529.463 641.35 529.136 641.44Q528.81 641.53 528.476 641.586C525.305 642.145 521.445 641.779 518.206 641.792L496.753 641.819C489.293 641.812 481.562 642.404 474.147 642.006C472.812 641.934 470.545 641.837 469.406 641.028C468.793 640.592 468.757 640.489 468.331 639.968C468.239 638.797 468.281 638.68 468.844 637.646C473.674 635.607 487.324 636.88 493.249 636.866C493.895 632.384 493.546 627.398 493.545 622.869C493.542 610.426 492.966 598.006 493.129 585.56Z"/>
	<path fill="#9E5FF3" d="M416.063 585.679C426.673 585.151 437.486 585.503 448.113 585.486C463.109 585.462 478.138 585.239 493.129 585.56C492.966 598.006 493.542 610.426 493.545 622.869C493.546 627.398 493.895 632.384 493.249 636.866C492.303 626.721 493.011 615.901 492.998 605.662C480.135 605.686 460.411 606.789 448.315 605.057Q447.122 604.875 445.94 604.635Q444.758 604.395 443.589 604.097Q442.42 603.8 441.267 603.446Q440.113 603.093 438.979 602.683Q437.844 602.274 436.731 601.81Q435.617 601.345 434.528 600.828Q433.438 600.31 432.375 599.739Q431.312 599.169 430.278 598.548Q429.244 597.927 428.242 597.256Q427.239 596.585 426.271 595.866Q425.302 595.147 424.369 594.382Q423.437 593.617 422.542 592.808Q421.648 591.998 420.794 591.146Q419.94 590.294 419.129 589.401Q418.318 588.508 417.551 587.577Q416.784 586.646 416.063 585.679Z"/>
	<path fill="#9E5FF3" d="M540.976 584.949C549.8 585.149 609.16 584.737 612.442 586.028C607.905 594.359 601.53 601.199 592.151 603.897C581.581 606.937 563.238 605.568 551.633 605.58L498.474 605.625C498.627 598.967 498.767 592.204 498.429 585.553C512.448 585.176 527.077 586.696 540.976 584.949Z"/>
	<path fill="#E9A7F3" d="M480.738 515.351C484.26 503.168 489.82 492.415 500.202 484.709C512.81 475.351 530.08 471.702 545.503 474.171C560.364 476.551 574.359 486.064 583.037 498.242C590.136 508.204 595.057 523.458 593.022 535.73C592.939 534.918 592.98 532.597 592.399 532.118C589.458 529.696 578.71 527.146 574.175 524.553C570.037 522.187 566.655 517.948 563.28 514.643C554.753 506.294 543.208 502.882 531.476 504.756C518.446 506.838 505.913 514.887 498.336 525.648C495.191 530.116 493.124 535.014 491.338 540.157C482.972 534.377 470.803 532.327 460.865 534.068C451.069 535.784 441.703 541.273 435.995 549.504C431.668 555.745 429.083 563.752 429.466 571.349C422.848 571.919 416.272 573.2 409.653 573.589L409.398 572.809C405.403 560.159 406.156 545.512 412.339 533.689C418.044 522.78 428.102 513.906 439.91 510.259C453.64 506.018 468.277 508.71 480.738 515.351Z"/>
	<path fill="#E588F4" d="M491.338 540.157C493.124 535.014 495.191 530.116 498.336 525.648C505.913 514.887 518.446 506.838 531.476 504.756C543.208 502.882 554.753 506.294 563.28 514.643C566.655 517.948 570.037 522.187 574.175 524.553C578.71 527.146 589.458 529.696 592.399 532.118C592.98 532.597 592.939 534.918 593.022 535.73L594.512 536.635C604.231 541.782 611.232 549.247 614.501 559.889C617.16 568.547 616.6 577.848 612.486 585.956C612.473 585.981 612.457 586.004 612.442 586.028C609.16 584.737 549.8 585.149 540.976 584.949C527.077 586.696 512.448 585.176 498.429 585.553L493.129 585.56C478.138 585.239 463.109 585.462 448.113 585.486C437.486 585.503 426.673 585.151 416.063 585.679C413.199 582.094 411.456 577.765 409.653 573.589C416.272 573.2 422.848 571.919 429.466 571.349C429.083 563.752 431.668 555.745 435.995 549.504C441.703 541.273 451.069 535.784 460.865 534.068C470.803 532.327 482.972 534.377 491.338 540.157Z"/>
	<path fill="#B682EE" d="M594.512 536.635C604.231 541.782 611.232 549.247 614.501 559.889C617.16 568.547 616.6 577.848 612.486 585.956C612.473 585.981 612.457 586.004 612.442 586.028C609.16 584.737 549.8 585.149 540.976 584.949C551.695 580.588 559.521 579.194 569.4 571.992C580.553 563.86 592.264 550.666 594.512 536.635Z"/>
	<path fill="#7B7DE8" d="M525.899 426.581C527.987 426.688 530.118 426.709 532.195 426.92C530.362 426.989 528.009 426.777 526.397 427.723C525.636 433.065 526.471 438.964 526.385 444.394L569.036 444.363C576.46 444.358 584.217 443.91 591.605 444.585C573.631 445.712 555.181 444.88 537.136 444.874Q470.256 444.368 403.374 444.609L364.614 444.69C357.148 444.708 349.562 444.489 342.109 444.936Q341.95 473.209 342.141 501.479C342.163 509.179 343.066 518.184 342.003 525.78C342.448 541.687 342.089 557.656 342.068 573.57L342.005 656.127L544.001 656.35L608.986 656.142C619.426 656.104 630.496 655.325 640.879 656.157C638.631 657.368 585.534 656.669 578.44 656.669L578.363 674.587C585.248 674.606 592.253 674.382 599.115 674.906C590.793 675.419 582.232 675.04 573.889 675.036L525.716 674.951L402.166 674.867C375.622 674.791 348.941 674.108 322.413 674.931C322.736 644.203 322.857 613.321 322.362 582.597L322.217 575.455Q322.423 558.497 322.387 541.537C326.392 541.756 332.286 542.887 335.853 540.86C338.252 539.497 339.533 536.688 340.084 534.088C340.34 532.882 340.29 532.818 339.631 531.851C333.991 532.374 328.004 532.049 322.327 532.082Q322.448 523.107 322.19 514.135C322.184 505.696 322.499 497.169 322.081 488.746C323.474 472.919 317.999 447.386 329.557 435.25C333.202 431.423 338.014 428.44 343.266 427.541C349.903 426.404 357.021 426.879 363.742 426.892L392.79 426.887C434.026 426.846 475.385 427.56 516.603 426.621L525.899 426.581Z"/>
</svg>
